<svg width="206" height="44" viewBox="0 0 206 44" fill="none" xmlns="http://www.w3.org/2000/svg">
<rect width="206" height="44" rx="8" fill="white"/>
<path fill-rule="evenodd" clip-rule="evenodd" d="M19.3 20.825C20 21.525 20.9 21.875 22 21.875C23.1 21.875 24 21.525 24.7 20.825C25.4 20.125 25.75 19.225 25.75 18.125C25.75 17.025 25.4 16.125 24.7 15.425C24 14.725 23.1 14.375 22 14.375C20.9 14.375 20 14.725 19.3 15.425C18.6 16.125 18.25 17.025 18.25 18.125C18.25 19.225 18.6 20.125 19.3 20.825ZM14 27.55V29.9H22.95C22.7833 29.6833 22.6417 29.4542 22.525 29.2125C22.4083 28.9708 22.3083 28.7 22.225 28.4H15.5V27.55C15.5 27.3 15.5667 27.0542 15.7 26.8125C15.8333 26.5708 16.0333 26.3833 16.3 26.25C17.2833 25.7667 18.2375 25.4208 19.1625 25.2125C20.0875 25.0042 21.0333 24.9 22 24.9H22.225C22.2583 24.5833 22.3 24.3125 22.35 24.0875C22.4 23.8625 22.475 23.6333 22.575 23.4H22C21.05 23.4 20.0625 23.5167 19.0375 23.75C18.0125 23.9833 16.9 24.3667 15.7 24.9C15.15 25.15 14.7292 25.5083 14.4375 25.975C14.1458 26.4417 14 26.9667 14 27.55ZM23.6125 19.7375C23.1875 20.1625 22.65 20.375 22 20.375C21.35 20.375 20.8125 20.1625 20.3875 19.7375C19.9625 19.3125 19.75 18.775 19.75 18.125C19.75 17.475 19.9625 16.9375 20.3875 16.5125C20.8125 16.0875 21.35 15.875 22 15.875C22.65 15.875 23.1875 16.0875 23.6125 16.5125C24.0375 16.9375 24.25 17.475 24.25 18.125C24.25 18.775 24.0375 19.3125 23.6125 19.7375Z" fill="#3E414D"/>
<path fill-rule="evenodd" clip-rule="evenodd" d="M28.675 31L28.425 29.35C28.1417 29.2667 27.8542 29.1458 27.5625 28.9875C27.2708 28.8292 27.025 28.65 26.825 28.45L25.45 28.75L24.825 27.7L26 26.6C25.9667 26.45 25.95 26.2417 25.95 25.975C25.95 25.7083 25.9667 25.5 26 25.35L24.825 24.25L25.45 23.2L26.825 23.5C27.025 23.3 27.2708 23.1208 27.5625 22.9625C27.8542 22.8042 28.1417 22.6833 28.425 22.6L28.675 20.95H30.025L30.275 22.6C30.5583 22.6833 30.8458 22.8042 31.1375 22.9625C31.4292 23.1208 31.675 23.3 31.875 23.5L33.25 23.2L33.875 24.25L32.7 25.35C32.7333 25.5 32.75 25.7083 32.75 25.975C32.75 26.2417 32.7333 26.45 32.7 26.6L33.875 27.7L33.25 28.75L31.875 28.45C31.675 28.65 31.4292 28.8292 31.1375 28.9875C30.8458 29.1458 30.5583 29.2667 30.275 29.35L30.025 31H28.675ZM30.8 27.425C30.4333 27.7917 29.95 27.975 29.35 27.975C28.75 27.975 28.2667 27.7917 27.9 27.425C27.5333 27.0583 27.35 26.575 27.35 25.975C27.35 25.375 27.5333 24.8917 27.9 24.525C28.2667 24.1583 28.75 23.975 29.35 23.975C29.95 23.975 30.4333 24.1583 30.8 24.525C31.1667 24.8917 31.35 25.375 31.35 25.975C31.35 26.575 31.1667 27.0583 30.8 27.425Z" fill="#224DFF"/>
<path d="M45.9787 27H44.348L48.0121 16.8182H49.7869L53.451 27H51.8203L48.9418 18.6676H48.8622L45.9787 27ZM46.2521 23.0128H51.5419V24.3054H46.2521V23.0128ZM57.8956 27.1541C57.1565 27.1541 56.5201 26.9867 55.9865 26.652C55.4562 26.3139 55.0485 25.8482 54.7635 25.255C54.4785 24.6617 54.3359 23.9822 54.3359 23.2166C54.3359 22.4411 54.4818 21.7566 54.7734 21.1634C55.0651 20.5668 55.4761 20.1011 56.0064 19.7663C56.5367 19.4316 57.1615 19.2642 57.8807 19.2642C58.4607 19.2642 58.9777 19.3719 59.4318 19.5874C59.8859 19.7995 60.2521 20.0978 60.5305 20.4822C60.8123 20.8667 60.9796 21.3158 61.0327 21.8295H59.5859C59.5064 21.4716 59.3241 21.1634 59.0391 20.9048C58.7573 20.6463 58.3795 20.517 57.9055 20.517C57.4912 20.517 57.1283 20.6264 56.8168 20.8452C56.5085 21.0606 56.2682 21.3688 56.0959 21.7699C55.9235 22.1676 55.8374 22.6383 55.8374 23.1818C55.8374 23.7386 55.9219 24.2192 56.0909 24.6236C56.2599 25.0279 56.4986 25.3411 56.8068 25.5632C57.1184 25.7853 57.4846 25.8963 57.9055 25.8963C58.1873 25.8963 58.4425 25.8449 58.6712 25.7422C58.9032 25.6361 59.0971 25.4853 59.2528 25.2898C59.4119 25.0942 59.523 24.8589 59.5859 24.5838H61.0327C60.9796 25.0777 60.8189 25.5185 60.5504 25.9062C60.282 26.294 59.9223 26.599 59.4716 26.821C59.0241 27.0431 58.4988 27.1541 57.8956 27.1541ZM65.839 27.1541C65.0998 27.1541 64.4635 26.9867 63.9299 26.652C63.3996 26.3139 62.9919 25.8482 62.7069 25.255C62.4218 24.6617 62.2793 23.9822 62.2793 23.2166C62.2793 22.4411 62.4251 21.7566 62.7168 21.1634C63.0085 20.5668 63.4194 20.1011 63.9498 19.7663C64.4801 19.4316 65.1048 19.2642 65.824 19.2642C66.4041 19.2642 66.9211 19.3719 67.3752 19.5874C67.8292 19.7995 68.1955 20.0978 68.4739 20.4822C68.7556 20.8667 68.923 21.3158 68.976 21.8295H67.5293C67.4498 21.4716 67.2675 21.1634 66.9824 20.9048C66.7007 20.6463 66.3229 20.517 65.8489 20.517C65.4346 20.517 65.0717 20.6264 64.7601 20.8452C64.4519 21.0606 64.2116 21.3688 64.0392 21.7699C63.8669 22.1676 63.7807 22.6383 63.7807 23.1818C63.7807 23.7386 63.8652 24.2192 64.0343 24.6236C64.2033 25.0279 64.4419 25.3411 64.7502 25.5632C65.0617 25.7853 65.428 25.8963 65.8489 25.8963C66.1306 25.8963 66.3858 25.8449 66.6145 25.7422C66.8465 25.6361 67.0404 25.4853 67.1962 25.2898C67.3553 25.0942 67.4663 24.8589 67.5293 24.5838H68.976C68.923 25.0777 68.7623 25.5185 68.4938 25.9062C68.2253 26.294 67.8657 26.599 67.415 26.821C66.9675 27.0431 66.4422 27.1541 65.839 27.1541ZM73.7823 27.1541C73.0664 27.1541 72.4416 26.9901 71.908 26.6619C71.3744 26.3338 70.9601 25.8748 70.6651 25.2848C70.3701 24.6948 70.2227 24.0054 70.2227 23.2166C70.2227 22.4245 70.3701 21.7318 70.6651 21.1385C70.9601 20.5452 71.3744 20.0845 71.908 19.7564C72.4416 19.4283 73.0664 19.2642 73.7823 19.2642C74.4982 19.2642 75.123 19.4283 75.6566 19.7564C76.1902 20.0845 76.6045 20.5452 76.8995 21.1385C77.1945 21.7318 77.342 22.4245 77.342 23.2166C77.342 24.0054 77.1945 24.6948 76.8995 25.2848C76.6045 25.8748 76.1902 26.3338 75.6566 26.6619C75.123 26.9901 74.4982 27.1541 73.7823 27.1541ZM73.7873 25.9062C74.2513 25.9062 74.6358 25.7836 74.9407 25.5384C75.2456 25.2931 75.471 24.9666 75.6168 24.5589C75.766 24.1513 75.8406 23.7022 75.8406 23.2116C75.8406 22.7244 75.766 22.277 75.6168 21.8693C75.471 21.4583 75.2456 21.1286 74.9407 20.88C74.6358 20.6314 74.2513 20.5071 73.7873 20.5071C73.32 20.5071 72.9322 20.6314 72.6239 20.88C72.319 21.1286 72.092 21.4583 71.9428 21.8693C71.797 22.277 71.7241 22.7244 71.7241 23.2116C71.7241 23.7022 71.797 24.1513 71.9428 24.5589C72.092 24.9666 72.319 25.2931 72.6239 25.5384C72.9322 25.7836 73.32 25.9062 73.7873 25.9062ZM83.8386 23.8331V19.3636H85.3301V27H83.8684V25.6776H83.7889C83.6132 26.0852 83.3315 26.425 82.9437 26.6967C82.5592 26.9652 82.0803 27.0994 81.5069 27.0994C81.0164 27.0994 80.5822 26.9917 80.2044 26.7763C79.8298 26.5575 79.5349 26.2344 79.3194 25.8068C79.1073 25.3793 79.0012 24.8506 79.0012 24.2209V19.3636H80.4877V24.0419C80.4877 24.5623 80.6319 24.9766 80.9203 25.2848C81.2086 25.593 81.5832 25.7472 82.0439 25.7472C82.3223 25.7472 82.599 25.6776 82.8741 25.5384C83.1525 25.3991 83.3829 25.1887 83.5652 24.907C83.7508 24.6252 83.8419 24.2673 83.8386 23.8331ZM88.8139 22.4659V27H87.3274V19.3636H88.7543V20.6065H88.8487C89.0244 20.2022 89.2995 19.8774 89.674 19.6321C90.0518 19.3868 90.5275 19.2642 91.1009 19.2642C91.6212 19.2642 92.0769 19.3736 92.468 19.5923C92.8591 19.8078 93.1624 20.1293 93.3778 20.5568C93.5933 20.9844 93.701 21.513 93.701 22.1428V27H92.2145V22.3217C92.2145 21.7682 92.0703 21.3357 91.782 21.0241C91.4936 20.7093 91.0975 20.5518 90.5938 20.5518C90.2491 20.5518 89.9425 20.6264 89.674 20.7756C89.4089 20.9247 89.1984 21.1435 89.0426 21.4318C88.8902 21.7169 88.8139 22.0616 88.8139 22.4659ZM99.2592 19.3636V20.5568H95.0881V19.3636H99.2592ZM96.2067 17.5341H97.6932V24.7578C97.6932 25.0462 97.7363 25.2633 97.8224 25.4091C97.9086 25.5516 98.0196 25.6494 98.1555 25.7024C98.2947 25.7521 98.4455 25.777 98.608 25.777C98.7273 25.777 98.8317 25.7687 98.9212 25.7521C99.0107 25.7356 99.0803 25.7223 99.13 25.7124L99.3984 26.9403C99.3123 26.9735 99.1896 27.0066 99.0305 27.0398C98.8714 27.0762 98.6726 27.0961 98.4339 27.0994C98.0429 27.1061 97.6783 27.0365 97.3402 26.8906C97.0021 26.7448 96.7287 26.5194 96.5199 26.2145C96.3111 25.9096 96.2067 25.5268 96.2067 25.0661V17.5341Z" fill="#2C2C2E"/>
</svg>
