<svg width="206" height="44" viewBox="0 0 206 44" fill="none" xmlns="http://www.w3.org/2000/svg">
<rect width="206" height="44" rx="8" fill="white"/>
<path d="M21.55 25.7L16 20.15L17.75 18.35L23.35 23.9L21.55 25.7Z" fill="#224DFF"/>
<path fill-rule="evenodd" clip-rule="evenodd" d="M16 31V29.5H28V31H16ZM32.95 30L19.55 16.6L20.6 15.55L34 28.95L32.95 30Z" fill="#3E414D"/>
<path d="M27.9 19.35L22.35 13.75L24.15 12L29.7 17.55L27.9 19.35Z" fill="#224DFF"/>
<path d="M45.9787 27H44.348L48.0121 16.8182H49.7869L53.451 27H51.8203L48.9418 18.6676H48.8622L45.9787 27ZM46.2521 23.0128H51.5419V24.3054H46.2521V23.0128ZM57.5376 27.1491C56.9212 27.1491 56.371 26.9917 55.8871 26.6768C55.4065 26.3587 55.0286 25.9062 54.7536 25.3196C54.4818 24.7296 54.3459 24.022 54.3459 23.1967C54.3459 22.3714 54.4834 21.6655 54.7585 21.0788C55.0369 20.4922 55.4181 20.0431 55.902 19.7315C56.3859 19.42 56.9344 19.2642 57.5476 19.2642C58.0215 19.2642 58.4027 19.3438 58.6911 19.5028C58.9827 19.6586 59.2081 19.8409 59.3672 20.0497C59.5296 20.2585 59.6555 20.4425 59.745 20.6016H59.8345V16.8182H61.321V27H59.8693V25.8118H59.745C59.6555 25.9742 59.5263 26.1598 59.3572 26.3686C59.1915 26.5774 58.9628 26.7597 58.6712 26.9155C58.3795 27.0713 58.0017 27.1491 57.5376 27.1491ZM57.8658 25.8814C58.2933 25.8814 58.6546 25.7687 58.9496 25.5433C59.2479 25.3146 59.4732 24.9981 59.6257 24.5938C59.7815 24.1894 59.8594 23.7187 59.8594 23.1818C59.8594 22.6515 59.7831 22.1875 59.6307 21.7898C59.4782 21.392 59.2545 21.0821 58.9595 20.8601C58.6645 20.638 58.3 20.527 57.8658 20.527C57.4183 20.527 57.0455 20.643 56.7472 20.875C56.4489 21.107 56.2235 21.4235 56.071 21.8246C55.9219 22.2256 55.8473 22.678 55.8473 23.1818C55.8473 23.6922 55.9235 24.1513 56.076 24.5589C56.2285 24.9666 56.4538 25.2898 56.7521 25.5284C57.0537 25.7637 57.425 25.8814 57.8658 25.8814ZM69.9753 19.3636L67.2061 27H65.6152L62.8411 19.3636H64.437L66.3709 25.2401H66.4505L68.3794 19.3636H69.9753ZM74.4038 27.1541C73.6514 27.1541 73.0034 26.9934 72.4599 26.6719C71.9196 26.3471 71.502 25.8913 71.207 25.3047C70.9154 24.7147 70.7695 24.0237 70.7695 23.2315C70.7695 22.4493 70.9154 21.7599 71.207 21.1634C71.502 20.5668 71.913 20.1011 72.44 19.7663C72.9703 19.4316 73.5901 19.2642 74.2994 19.2642C74.7302 19.2642 75.1478 19.3355 75.5522 19.478C75.9566 19.6205 76.3195 19.8442 76.641 20.1491C76.9625 20.4541 77.216 20.8501 77.4016 21.3374C77.5872 21.8213 77.68 22.4096 77.68 23.1023V23.6293H71.6097V22.5156H76.2234C76.2234 22.1245 76.1438 21.7782 75.9847 21.4766C75.8256 21.1716 75.6019 20.9313 75.3136 20.7557C75.0285 20.58 74.6938 20.4922 74.3093 20.4922C73.8917 20.4922 73.5271 20.5949 73.2156 20.8004C72.9073 21.0026 72.6687 21.2678 72.4996 21.5959C72.3339 21.9207 72.2511 22.2737 72.2511 22.6548V23.5249C72.2511 24.0353 72.3406 24.4695 72.5195 24.8274C72.7018 25.1854 72.9554 25.4588 73.2802 25.6477C73.605 25.8333 73.9845 25.9261 74.4187 25.9261C74.7004 25.9261 74.9573 25.8864 75.1893 25.8068C75.4213 25.724 75.6218 25.6013 75.7908 25.4389C75.9599 25.2765 76.0891 25.076 76.1786 24.8374L77.5856 25.0909C77.4729 25.5052 77.2707 25.8681 76.979 26.1797C76.6907 26.4879 76.3278 26.7282 75.8903 26.9006C75.4561 27.0696 74.9606 27.1541 74.4038 27.1541ZM79.3294 27V19.3636H80.7662V20.5767H80.8457C80.9849 20.1657 81.2302 19.8426 81.5815 19.6072C81.9361 19.3686 82.3372 19.2493 82.7846 19.2493C82.8774 19.2493 82.9868 19.2526 83.1127 19.2592C83.242 19.2659 83.3431 19.2741 83.416 19.2841V20.706C83.3564 20.6894 83.2503 20.6712 83.0978 20.6513C82.9454 20.6281 82.7929 20.6165 82.6404 20.6165C82.2891 20.6165 81.9759 20.6911 81.7008 20.8402C81.429 20.986 81.2136 21.1899 81.0545 21.4517C80.8954 21.7102 80.8159 22.0052 80.8159 22.3366V27H79.3294ZM90.4247 21.228L89.0774 21.4666C89.0211 21.2943 88.9316 21.1302 88.8089 20.9744C88.6896 20.8187 88.5272 20.6911 88.3217 20.5916C88.1162 20.4922 87.8594 20.4425 87.5511 20.4425C87.1302 20.4425 86.7789 20.5369 86.4972 20.7259C86.2154 20.9115 86.0746 21.1518 86.0746 21.4467C86.0746 21.7019 86.169 21.9074 86.358 22.0632C86.5469 22.219 86.8518 22.3466 87.2727 22.446L88.4858 22.7244C89.1884 22.8868 89.7121 23.1371 90.0568 23.4751C90.4015 23.8132 90.5739 24.2524 90.5739 24.7926C90.5739 25.25 90.4413 25.6577 90.1761 26.0156C89.9143 26.3703 89.5481 26.6487 89.0774 26.8509C88.6101 27.053 88.0682 27.1541 87.4517 27.1541C86.5966 27.1541 85.8989 26.9718 85.3587 26.6072C84.8184 26.2393 84.487 25.7173 84.3643 25.0412L85.8011 24.8224C85.8906 25.197 86.0746 25.4804 86.353 25.6726C86.6314 25.8615 86.9943 25.956 87.4418 25.956C87.929 25.956 88.3184 25.8549 88.6101 25.6527C88.9018 25.4472 89.0476 25.197 89.0476 24.902C89.0476 24.6634 88.9581 24.4628 88.7791 24.3004C88.6035 24.138 88.3333 24.0154 87.9688 23.9325L86.6761 23.6491C85.9635 23.4867 85.4366 23.2282 85.0952 22.8736C84.7571 22.5189 84.5881 22.0698 84.5881 21.5263C84.5881 21.0755 84.714 20.6811 84.9659 20.343C85.2178 20.005 85.5658 19.7415 86.0099 19.5526C86.4541 19.3603 86.9628 19.2642 87.5362 19.2642C88.3615 19.2642 89.0111 19.4432 89.4851 19.8011C89.959 20.1558 90.2723 20.6314 90.4247 21.228ZM95.4995 27.1541C94.7471 27.1541 94.0991 26.9934 93.5556 26.6719C93.0153 26.3471 92.5977 25.8913 92.3027 25.3047C92.0111 24.7147 91.8652 24.0237 91.8652 23.2315C91.8652 22.4493 92.0111 21.7599 92.3027 21.1634C92.5977 20.5668 93.0087 20.1011 93.5357 19.7663C94.066 19.4316 94.6858 19.2642 95.3951 19.2642C95.8259 19.2642 96.2435 19.3355 96.6479 19.478C97.0523 19.6205 97.4152 19.8442 97.7367 20.1491C98.0582 20.4541 98.3117 20.8501 98.4973 21.3374C98.6829 21.8213 98.7757 22.4096 98.7757 23.1023V23.6293H92.7054V22.5156H97.3191C97.3191 22.1245 97.2395 21.7782 97.0804 21.4766C96.9213 21.1716 96.6976 20.9313 96.4093 20.7557C96.1242 20.58 95.7895 20.4922 95.405 20.4922C94.9874 20.4922 94.6228 20.5949 94.3113 20.8004C94.003 21.0026 93.7644 21.2678 93.5953 21.5959C93.4296 21.9207 93.3468 22.2737 93.3468 22.6548V23.5249C93.3468 24.0353 93.4363 24.4695 93.6152 24.8274C93.7975 25.1854 94.0511 25.4588 94.3759 25.6477C94.7007 25.8333 95.0802 25.9261 95.5144 25.9261C95.7961 25.9261 96.053 25.8864 96.285 25.8068C96.517 25.724 96.7175 25.6013 96.8865 25.4389C97.0556 25.2765 97.1848 25.076 97.2743 24.8374L98.6813 25.0909C98.5686 25.5052 98.3664 25.8681 98.0748 26.1797C97.7864 26.4879 97.4235 26.7282 96.986 26.9006C96.5518 27.0696 96.0563 27.1541 95.4995 27.1541ZM105.11 27H103.479L107.143 16.8182H108.918L112.582 27H110.951L108.073 18.6676H107.993L105.11 27ZM105.383 23.0128H110.673V24.3054H105.383V23.0128ZM117.026 27.1541C116.287 27.1541 115.651 26.9867 115.117 26.652C114.587 26.3139 114.179 25.8482 113.894 25.255C113.609 24.6617 113.467 23.9822 113.467 23.2166C113.467 22.4411 113.613 21.7566 113.904 21.1634C114.196 20.5668 114.607 20.1011 115.137 19.7663C115.668 19.4316 116.292 19.2642 117.012 19.2642C117.592 19.2642 118.109 19.3719 118.563 19.5874C119.017 19.7995 119.383 20.0978 119.661 20.4822C119.943 20.8667 120.11 21.3158 120.164 21.8295H118.717C118.637 21.4716 118.455 21.1634 118.17 20.9048C117.888 20.6463 117.51 20.517 117.036 20.517C116.622 20.517 116.259 20.6264 115.948 20.8452C115.639 21.0606 115.399 21.3688 115.227 21.7699C115.054 22.1676 114.968 22.6383 114.968 23.1818C114.968 23.7386 115.053 24.2192 115.222 24.6236C115.391 25.0279 115.629 25.3411 115.938 25.5632C116.249 25.7853 116.615 25.8963 117.036 25.8963C117.318 25.8963 117.573 25.8449 117.802 25.7422C118.034 25.6361 118.228 25.4853 118.384 25.2898C118.543 25.0942 118.654 24.8589 118.717 24.5838H120.164C120.11 25.0777 119.95 25.5185 119.681 25.9062C119.413 26.294 119.053 26.599 118.602 26.821C118.155 27.0431 117.63 27.1541 117.026 27.1541ZM125.318 19.3636V20.5568H121.147V19.3636H125.318ZM122.265 17.5341H123.752V24.7578C123.752 25.0462 123.795 25.2633 123.881 25.4091C123.967 25.5516 124.078 25.6494 124.214 25.7024C124.353 25.7521 124.504 25.777 124.667 25.777C124.786 25.777 124.89 25.7687 124.98 25.7521C125.069 25.7356 125.139 25.7223 125.189 25.7124L125.457 26.9403C125.371 26.9735 125.248 27.0066 125.089 27.0398C124.93 27.0762 124.731 27.0961 124.493 27.0994C124.101 27.1061 123.737 27.0365 123.399 26.8906C123.061 26.7448 122.787 26.5194 122.578 26.2145C122.37 25.9096 122.265 25.5268 122.265 25.0661V17.5341ZM126.962 27V19.3636H128.449V27H126.962ZM127.713 18.1854C127.454 18.1854 127.232 18.0992 127.047 17.9268C126.864 17.7512 126.773 17.5424 126.773 17.3004C126.773 17.0552 126.864 16.8464 127.047 16.674C127.232 16.4983 127.454 16.4105 127.713 16.4105C127.971 16.4105 128.192 16.4983 128.374 16.674C128.56 16.8464 128.653 17.0552 128.653 17.3004C128.653 17.5424 128.56 17.7512 128.374 17.9268C128.192 18.0992 127.971 18.1854 127.713 18.1854ZM133.665 27.1541C132.949 27.1541 132.324 26.9901 131.791 26.6619C131.257 26.3338 130.843 25.8748 130.548 25.2848C130.253 24.6948 130.105 24.0054 130.105 23.2166C130.105 22.4245 130.253 21.7318 130.548 21.1385C130.843 20.5452 131.257 20.0845 131.791 19.7564C132.324 19.4283 132.949 19.2642 133.665 19.2642C134.381 19.2642 135.006 19.4283 135.539 19.7564C136.073 20.0845 136.487 20.5452 136.782 21.1385C137.077 21.7318 137.225 22.4245 137.225 23.2166C137.225 24.0054 137.077 24.6948 136.782 25.2848C136.487 25.8748 136.073 26.3338 135.539 26.6619C135.006 26.9901 134.381 27.1541 133.665 27.1541ZM133.67 25.9062C134.134 25.9062 134.519 25.7836 134.824 25.5384C135.128 25.2931 135.354 24.9666 135.5 24.5589C135.649 24.1513 135.723 23.7022 135.723 23.2116C135.723 22.7244 135.649 22.277 135.5 21.8693C135.354 21.4583 135.128 21.1286 134.824 20.88C134.519 20.6314 134.134 20.5071 133.67 20.5071C133.203 20.5071 132.815 20.6314 132.507 20.88C132.202 21.1286 131.975 21.4583 131.826 21.8693C131.68 22.277 131.607 22.7244 131.607 23.2116C131.607 23.7022 131.68 24.1513 131.826 24.5589C131.975 24.9666 132.202 25.2931 132.507 25.5384C132.815 25.7836 133.203 25.9062 133.67 25.9062ZM140.371 22.4659V27H138.884V19.3636H140.311V20.6065H140.405C140.581 20.2022 140.856 19.8774 141.231 19.6321C141.608 19.3868 142.084 19.2642 142.657 19.2642C143.178 19.2642 143.634 19.3736 144.025 19.5923C144.416 19.8078 144.719 20.1293 144.934 20.5568C145.15 20.9844 145.258 21.513 145.258 22.1428V27H143.771V22.3217C143.771 21.7682 143.627 21.3357 143.339 21.0241C143.05 20.7093 142.654 20.5518 142.15 20.5518C141.806 20.5518 141.499 20.6264 141.231 20.7756C140.965 20.9247 140.755 21.1435 140.599 21.4318C140.447 21.7169 140.371 22.0616 140.371 22.4659ZM152.974 21.228L151.626 21.4666C151.57 21.2943 151.48 21.1302 151.358 20.9744C151.238 20.8187 151.076 20.6911 150.871 20.5916C150.665 20.4922 150.408 20.4425 150.1 20.4425C149.679 20.4425 149.328 20.5369 149.046 20.7259C148.764 20.9115 148.623 21.1518 148.623 21.4467C148.623 21.7019 148.718 21.9074 148.907 22.0632C149.096 22.219 149.401 22.3466 149.822 22.446L151.035 22.7244C151.737 22.8868 152.261 23.1371 152.606 23.4751C152.95 23.8132 153.123 24.2524 153.123 24.7926C153.123 25.25 152.99 25.6577 152.725 26.0156C152.463 26.3703 152.097 26.6487 151.626 26.8509C151.159 27.053 150.617 27.1541 150.001 27.1541C149.145 27.1541 148.448 26.9718 147.907 26.6072C147.367 26.2393 147.036 25.7173 146.913 25.0412L148.35 24.8224C148.439 25.197 148.623 25.4804 148.902 25.6726C149.18 25.8615 149.543 25.956 149.991 25.956C150.478 25.956 150.867 25.8549 151.159 25.6527C151.451 25.4472 151.596 25.197 151.596 24.902C151.596 24.6634 151.507 24.4628 151.328 24.3004C151.152 24.138 150.882 24.0154 150.518 23.9325L149.225 23.6491C148.512 23.4867 147.985 23.2282 147.644 22.8736C147.306 22.5189 147.137 22.0698 147.137 21.5263C147.137 21.0755 147.263 20.6811 147.515 20.343C147.767 20.005 148.115 19.7415 148.559 19.5526C149.003 19.3603 149.512 19.2642 150.085 19.2642C150.91 19.2642 151.56 19.4432 152.034 19.8011C152.508 20.1558 152.821 20.6314 152.974 21.228Z" fill="#2C2C2E"/>
</svg>
