<svg width="206" height="44" viewBox="0 0 206 44" fill="none" xmlns="http://www.w3.org/2000/svg">
<rect width="206" height="44" rx="8" fill="white"/>
<path fill-rule="evenodd" clip-rule="evenodd" d="M28.9 27.075H27.4V23.375H28.9V27.075Z" fill="#224DFF"/>
<path d="M19.1 27.075H20.6V23.6375V20.2H19.1V27.075Z" fill="#224DFF"/>
<path fill-rule="evenodd" clip-rule="evenodd" d="M16.5 31C16.1 31 15.75 30.85 15.45 30.55C15.15 30.25 15 29.9 15 29.5V14.5C15 14.1 15.15 13.75 15.45 13.45C15.75 13.15 16.1 13 16.5 13H31.5C31.9 13 32.25 13.15 32.55 13.45C32.85 13.75 33 14.1 33 14.5V29.5C33 29.9 32.85 30.25 32.55 30.55C32.25 30.85 31.9 31 31.5 31H16.5ZM31.5 29.5H16.5V14.5H31.5V29.5Z" fill="#3E414D"/>
<path d="M23.25 27.075H24.75V16.925H23.25V27.075Z" fill="#224DFF"/>
<path d="M45.9787 27H44.348L48.0121 16.8182H49.7869L53.451 27H51.8203L48.9418 18.6676H48.8622L45.9787 27ZM46.2521 23.0128H51.5419V24.3054H46.2521V23.0128ZM56.2885 22.4659V27H54.802V19.3636H56.2289V20.6065H56.3233C56.499 20.2022 56.7741 19.8774 57.1486 19.6321C57.5265 19.3868 58.0021 19.2642 58.5755 19.2642C59.0958 19.2642 59.5516 19.3736 59.9426 19.5923C60.3337 19.8078 60.637 20.1293 60.8525 20.5568C61.0679 20.9844 61.1756 21.513 61.1756 22.1428V27H59.6891V22.3217C59.6891 21.7682 59.5449 21.3357 59.2566 21.0241C58.9682 20.7093 58.5721 20.5518 58.0684 20.5518C57.7237 20.5518 57.4171 20.6264 57.1486 20.7756C56.8835 20.9247 56.673 21.1435 56.5172 21.4318C56.3648 21.7169 56.2885 22.0616 56.2885 22.4659ZM65.3915 27.169C64.9076 27.169 64.4701 27.0795 64.079 26.9006C63.6879 26.7183 63.378 26.4548 63.1493 26.1101C62.9239 25.7654 62.8113 25.3428 62.8113 24.8423C62.8113 24.4115 62.8941 24.0568 63.0598 23.7784C63.2256 23.5 63.4493 23.2796 63.731 23.1172C64.0127 22.9548 64.3276 22.8321 64.6756 22.7493C65.0236 22.6664 65.3783 22.6035 65.7395 22.5604C66.1969 22.5073 66.5681 22.4643 66.8532 22.4311C67.1382 22.3946 67.3453 22.3366 67.4746 22.2571C67.6039 22.1776 67.6685 22.0483 67.6685 21.8693V21.8345C67.6685 21.4003 67.5459 21.0639 67.3006 20.8253C67.0587 20.5866 66.6974 20.4673 66.2168 20.4673C65.7163 20.4673 65.3219 20.5784 65.0336 20.8004C64.7485 21.0192 64.5513 21.2628 64.4419 21.5312L63.0449 21.2131C63.2106 20.7491 63.4526 20.3745 63.7708 20.0895C64.0923 19.8011 64.4618 19.5923 64.8794 19.4631C65.2971 19.3305 65.7362 19.2642 66.1969 19.2642C66.5018 19.2642 66.825 19.3007 67.1664 19.3736C67.5111 19.4432 67.8326 19.5724 68.1309 19.7614C68.4325 19.9503 68.6794 20.2204 68.8716 20.5717C69.0639 20.9197 69.16 21.3722 69.16 21.929V27H67.7083V25.956H67.6486C67.5525 26.1482 67.4083 26.3371 67.2161 26.5227C67.0239 26.7083 66.7769 26.8625 66.4753 26.9851C66.1737 27.1077 65.8124 27.169 65.3915 27.169ZM65.7147 25.9759C66.1257 25.9759 66.477 25.8946 66.7686 25.7322C67.0636 25.5698 67.2873 25.3577 67.4398 25.0959C67.5956 24.8307 67.6735 24.5473 67.6735 24.2457V23.2614C67.6204 23.3144 67.5177 23.3641 67.3652 23.4105C67.2161 23.4536 67.0454 23.4917 66.8532 23.5249C66.6609 23.5547 66.4737 23.5829 66.2914 23.6094C66.1091 23.6326 65.9566 23.6525 65.834 23.669C65.5456 23.7055 65.2821 23.7668 65.0435 23.853C64.8082 23.9392 64.6193 24.0634 64.4767 24.2259C64.3375 24.3849 64.2679 24.5971 64.2679 24.8622C64.2679 25.2301 64.4038 25.5085 64.6756 25.6974C64.9474 25.883 65.2937 25.9759 65.7147 25.9759ZM72.6264 16.8182V27H71.1399V16.8182H72.6264ZM75.5659 29.8636C75.3438 29.8636 75.1416 29.8454 74.9593 29.8089C74.777 29.7758 74.6412 29.7393 74.5517 29.6996L74.9096 28.4815C75.1814 28.5545 75.4234 28.5859 75.6355 28.576C75.8476 28.5661 76.0349 28.4865 76.1973 28.3374C76.363 28.1882 76.5088 27.9446 76.6348 27.6065L76.8187 27.0994L74.0247 19.3636H75.6156L77.5495 25.2898H77.6291L79.563 19.3636H81.1589L78.0119 28.0192C77.8661 28.4169 77.6805 28.7533 77.4551 29.0284C77.2297 29.3068 76.9612 29.5156 76.6497 29.6548C76.3381 29.794 75.9769 29.8636 75.5659 29.8636ZM86.1206 19.3636V20.5568H81.9494V19.3636H86.1206ZM83.068 17.5341H84.5545V24.7578C84.5545 25.0462 84.5976 25.2633 84.6838 25.4091C84.7699 25.5516 84.881 25.6494 85.0169 25.7024C85.1561 25.7521 85.3069 25.777 85.4693 25.777C85.5886 25.777 85.693 25.7687 85.7825 25.7521C85.872 25.7356 85.9416 25.7223 85.9913 25.7124L86.2598 26.9403C86.1736 26.9735 86.051 27.0066 85.8919 27.0398C85.7328 27.0762 85.5339 27.0961 85.2953 27.0994C84.9042 27.1061 84.5396 27.0365 84.2015 26.8906C83.8635 26.7448 83.59 26.5194 83.3812 26.2145C83.1724 25.9096 83.068 25.5268 83.068 25.0661V17.5341ZM87.7649 27V19.3636H89.2514V27H87.7649ZM88.5156 18.1854C88.2571 18.1854 88.035 18.0992 87.8494 17.9268C87.6671 17.7512 87.576 17.5424 87.576 17.3004C87.576 17.0552 87.6671 16.8464 87.8494 16.674C88.035 16.4983 88.2571 16.4105 88.5156 16.4105C88.7741 16.4105 88.9946 16.4983 89.1768 16.674C89.3625 16.8464 89.4553 17.0552 89.4553 17.3004C89.4553 17.5424 89.3625 17.7512 89.1768 17.9268C88.9946 18.0992 88.7741 18.1854 88.5156 18.1854ZM94.4679 27.1541C93.7288 27.1541 93.0924 26.9867 92.5588 26.652C92.0285 26.3139 91.6208 25.8482 91.3358 25.255C91.0507 24.6617 90.9082 23.9822 90.9082 23.2166C90.9082 22.4411 91.054 21.7566 91.3457 21.1634C91.6374 20.5668 92.0484 20.1011 92.5787 19.7663C93.109 19.4316 93.7337 19.2642 94.4529 19.2642C95.033 19.2642 95.55 19.3719 96.0041 19.5874C96.4582 19.7995 96.8244 20.0978 97.1028 20.4822C97.3845 20.8667 97.5519 21.3158 97.6049 21.8295H96.1582C96.0787 21.4716 95.8964 21.1634 95.6113 20.9048C95.3296 20.6463 94.9518 20.517 94.4778 20.517C94.0635 20.517 93.7006 20.6264 93.389 20.8452C93.0808 21.0606 92.8405 21.3688 92.6681 21.7699C92.4958 22.1676 92.4096 22.6383 92.4096 23.1818C92.4096 23.7386 92.4941 24.2192 92.6632 24.6236C92.8322 25.0279 93.0708 25.3411 93.3791 25.5632C93.6906 25.7853 94.0569 25.8963 94.4778 25.8963C94.7595 25.8963 95.0147 25.8449 95.2434 25.7422C95.4754 25.6361 95.6693 25.4853 95.8251 25.2898C95.9842 25.0942 96.0952 24.8589 96.1582 24.5838H97.6049C97.5519 25.0777 97.3912 25.5185 97.1227 25.9062C96.8542 26.294 96.4946 26.599 96.0439 26.821C95.5964 27.0431 95.0711 27.1541 94.4679 27.1541ZM104.917 21.228L103.57 21.4666C103.513 21.2943 103.424 21.1302 103.301 20.9744C103.182 20.8187 103.019 20.6911 102.814 20.5916C102.608 20.4922 102.352 20.4425 102.043 20.4425C101.622 20.4425 101.271 20.5369 100.989 20.7259C100.708 20.9115 100.567 21.1518 100.567 21.4467C100.567 21.7019 100.661 21.9074 100.85 22.0632C101.039 22.219 101.344 22.3466 101.765 22.446L102.978 22.7244C103.681 22.8868 104.204 23.1371 104.549 23.4751C104.894 23.8132 105.066 24.2524 105.066 24.7926C105.066 25.25 104.933 25.6577 104.668 26.0156C104.406 26.3703 104.04 26.6487 103.57 26.8509C103.102 27.053 102.56 27.1541 101.944 27.1541C101.089 27.1541 100.391 26.9718 99.8509 26.6072C99.3106 26.2393 98.9792 25.7173 98.8565 25.0412L100.293 24.8224C100.383 25.197 100.567 25.4804 100.845 25.6726C101.124 25.8615 101.487 25.956 101.934 25.956C102.421 25.956 102.811 25.8549 103.102 25.6527C103.394 25.4472 103.54 25.197 103.54 24.902C103.54 24.6634 103.45 24.4628 103.271 24.3004C103.096 24.138 102.826 24.0154 102.461 23.9325L101.168 23.6491C100.456 23.4867 99.9287 23.2282 99.5874 22.8736C99.2493 22.5189 99.0803 22.0698 99.0803 21.5263C99.0803 21.0755 99.2062 20.6811 99.4581 20.343C99.71 20.005 100.058 19.7415 100.502 19.5526C100.946 19.3603 101.455 19.2642 102.028 19.2642C102.854 19.2642 103.503 19.4432 103.977 19.8011C104.451 20.1558 104.764 20.6314 104.917 21.228Z" fill="#2C2C2E"/>
</svg>
