<svg width="206" height="44" viewBox="0 0 206 44" fill="none" xmlns="http://www.w3.org/2000/svg">
<rect width="206" height="44" rx="6" fill="#EFF2FF"/>
<path fill-rule="evenodd" clip-rule="evenodd" d="M13.7 30.0001C13.4833 30.0001 13.3042 29.9293 13.1625 29.7876C13.0208 29.6459 12.95 29.4668 12.95 29.2501V27.6501C12.95 27.0668 13.1 26.5376 13.4 26.0626C13.7 25.5876 14.1167 25.2334 14.65 25.0001C15.8667 24.4668 16.9625 24.0834 17.9375 23.8501C18.9125 23.6168 19.9167 23.5001 20.95 23.5001C21.9833 23.5001 22.9833 23.6168 23.95 23.8501C24.9167 24.0834 26.0083 24.4668 27.225 25.0001C27.7583 25.2334 28.1792 25.5876 28.4875 26.0626C28.7958 26.5376 28.95 27.0668 28.95 27.6501V29.2501C28.95 29.4668 28.8792 29.6459 28.7375 29.7876C28.5958 29.9293 28.4167 30.0001 28.2 30.0001H13.7ZM20.95 21.9751C19.85 21.9751 18.95 21.6251 18.25 20.9251C17.55 20.2251 17.2 19.3251 17.2 18.2251C17.2 17.1251 17.55 16.2251 18.25 15.5251C18.95 14.8251 19.85 14.4751 20.95 14.4751C22.05 14.4751 22.95 14.8251 23.65 15.5251C24.35 16.2251 24.7 17.1251 24.7 18.2251C24.7 19.3251 24.35 20.2251 23.65 20.9251C22.95 21.6251 22.05 21.9751 20.95 21.9751ZM27.45 28.5001V27.6501C27.45 27.3834 27.3708 27.1251 27.2125 26.8751C27.0542 26.6251 26.8583 26.4501 26.625 26.3501C25.425 25.8168 24.4167 25.4584 23.6 25.2751C22.7833 25.0918 21.9 25.0001 20.95 25.0001C20 25.0001 19.1125 25.0918 18.2875 25.2751C17.4625 25.4584 16.45 25.8168 15.25 26.3501C15.0167 26.4501 14.825 26.6251 14.675 26.8751C14.525 27.1251 14.45 27.3834 14.45 27.6501V28.5001H27.45ZM20.95 20.4751C21.6 20.4751 22.1375 20.2626 22.5625 19.8376C22.9875 19.4126 23.2 18.8751 23.2 18.2251C23.2 17.5751 22.9875 17.0376 22.5625 16.6126C22.1375 16.1876 21.6 15.9751 20.95 15.9751C20.3 15.9751 19.7625 16.1876 19.3375 16.6126C18.9125 17.0376 18.7 17.5751 18.7 18.2251C18.7 18.8751 18.9125 19.4126 19.3375 19.8376C19.7625 20.2626 20.3 20.4751 20.95 20.4751Z" fill="#224DFF"/>
<path d="M29.95 18.2251C29.95 19.3251 29.6 20.2251 28.9 20.9251C28.2 21.6251 27.3 21.9751 26.2 21.9751C26.0167 21.9751 25.8125 21.9626 25.5875 21.9376C25.3625 21.9126 25.1583 21.8668 24.975 21.8001C25.375 21.3834 25.6792 20.8709 25.8875 20.2626C26.0958 19.6543 26.2 18.9751 26.2 18.2251C26.2 17.4751 26.0958 16.8126 25.8875 16.2376C25.6792 15.6626 25.375 15.1334 24.975 14.6501C25.1583 14.6001 25.3625 14.5584 25.5875 14.5251C25.8125 14.4918 26.0167 14.4751 26.2 14.4751C27.3 14.4751 28.2 14.8251 28.9 15.5251C29.6 16.2251 29.95 17.1251 29.95 18.2251Z" fill="#3E414D"/>
<path d="M29.9 30.0001C30.0667 29.9668 30.2 29.8793 30.3 29.7376C30.4 29.5959 30.45 29.4168 30.45 29.2001V27.6501C30.45 26.6001 30.1833 25.7376 29.65 25.0626C29.1167 24.3876 28.4167 23.8418 27.55 23.4251C28.7 23.5584 29.7833 23.7543 30.8 24.0126C31.8167 24.2709 32.6417 24.5668 33.275 24.9001C33.825 25.2168 34.2583 25.6084 34.575 26.0751C34.8917 26.5418 35.05 27.0668 35.05 27.6501V29.2501C35.05 29.4668 34.9792 29.6459 34.8375 29.7876C34.6958 29.9293 34.5167 30.0001 34.3 30.0001H29.9Z" fill="#3E414D"/>
<path d="M53.5753 20.1293H52.0241C51.9645 19.7978 51.8535 19.5062 51.6911 19.2543C51.5286 19.0024 51.3298 18.7886 51.0945 18.6129C50.8591 18.4373 50.5956 18.3047 50.304 18.2152C50.0156 18.1257 49.709 18.081 49.3842 18.081C48.7976 18.081 48.2723 18.2285 47.8082 18.5234C47.3475 18.8184 46.983 19.2509 46.7145 19.821C46.4493 20.3911 46.3168 21.0871 46.3168 21.9091C46.3168 22.7377 46.4493 23.437 46.7145 24.0071C46.983 24.5772 47.3492 25.008 47.8132 25.2997C48.2772 25.5914 48.7992 25.7372 49.3793 25.7372C49.7008 25.7372 50.0057 25.6941 50.294 25.608C50.5857 25.5185 50.8492 25.3875 51.0845 25.2152C51.3198 25.0429 51.5187 24.8324 51.6811 24.5838C51.8468 24.3319 51.9612 24.0436 52.0241 23.7188L53.5753 23.7237C53.4924 24.2242 53.3317 24.6849 53.093 25.1058C52.8577 25.5234 52.5545 25.8847 52.1832 26.1896C51.8153 26.4912 51.3944 26.7249 50.9205 26.8906C50.4465 27.0563 49.9295 27.1392 49.3693 27.1392C48.4877 27.1392 47.7022 26.9304 47.0128 26.5128C46.3234 26.0919 45.7798 25.4903 45.3821 24.7081C44.9877 23.9259 44.7905 22.9929 44.7905 21.9091C44.7905 20.822 44.9893 19.889 45.3871 19.1101C45.7848 18.3279 46.3284 17.728 47.0178 17.3104C47.7071 16.8894 48.491 16.679 49.3693 16.679C49.9096 16.679 50.4134 16.7569 50.8807 16.9126C51.3513 17.0651 51.7739 17.2905 52.1484 17.5888C52.523 17.8838 52.8329 18.245 53.0781 18.6726C53.3234 19.0968 53.4891 19.5824 53.5753 20.1293ZM57.5165 27.169C57.0326 27.169 56.5951 27.0795 56.204 26.9006C55.8129 26.7183 55.503 26.4548 55.2743 26.1101C55.0489 25.7654 54.9363 25.3428 54.9363 24.8423C54.9363 24.4115 55.0191 24.0568 55.1848 23.7784C55.3506 23.5 55.5743 23.2796 55.856 23.1172C56.1377 22.9548 56.4526 22.8321 56.8006 22.7493C57.1486 22.6664 57.5033 22.6035 57.8645 22.5604C58.3219 22.5073 58.6931 22.4643 58.9782 22.4311C59.2632 22.3946 59.4703 22.3366 59.5996 22.2571C59.7289 22.1776 59.7935 22.0483 59.7935 21.8693V21.8345C59.7935 21.4003 59.6709 21.0639 59.4256 20.8253C59.1837 20.5866 58.8224 20.4673 58.3418 20.4673C57.8413 20.4673 57.4469 20.5784 57.1586 20.8004C56.8735 21.0192 56.6763 21.2628 56.5669 21.5312L55.1699 21.2131C55.3356 20.7491 55.5776 20.3745 55.8958 20.0895C56.2173 19.8011 56.5868 19.5923 57.0044 19.4631C57.4221 19.3305 57.8612 19.2642 58.3219 19.2642C58.6268 19.2642 58.95 19.3007 59.2914 19.3736C59.6361 19.4432 59.9576 19.5724 60.2559 19.7614C60.5575 19.9503 60.8044 20.2204 60.9966 20.5717C61.1889 20.9197 61.285 21.3722 61.285 21.929V27H59.8333V25.956H59.7736C59.6775 26.1482 59.5333 26.3371 59.3411 26.5227C59.1489 26.7083 58.9019 26.8625 58.6003 26.9851C58.2987 27.1077 57.9374 27.169 57.5165 27.169ZM57.8397 25.9759C58.2507 25.9759 58.602 25.8946 58.8936 25.7322C59.1886 25.5698 59.4123 25.3577 59.5648 25.0959C59.7206 24.8307 59.7985 24.5473 59.7985 24.2457V23.2614C59.7454 23.3144 59.6427 23.3641 59.4902 23.4105C59.3411 23.4536 59.1704 23.4917 58.9782 23.5249C58.7859 23.5547 58.5987 23.5829 58.4164 23.6094C58.2341 23.6326 58.0816 23.6525 57.959 23.669C57.6706 23.7055 57.4071 23.7668 57.1685 23.853C56.9332 23.9392 56.7443 24.0634 56.6017 24.2259C56.4625 24.3849 56.3929 24.5971 56.3929 24.8622C56.3929 25.2301 56.5288 25.5085 56.8006 25.6974C57.0724 25.883 57.4187 25.9759 57.8397 25.9759ZM64.7514 22.4659V27H63.2649V19.3636H64.6918V20.6065H64.7862C64.9619 20.2022 65.237 19.8774 65.6115 19.6321C65.9893 19.3868 66.465 19.2642 67.0384 19.2642C67.5587 19.2642 68.0144 19.3736 68.4055 19.5923C68.7966 19.8078 69.0999 20.1293 69.3153 20.5568C69.5308 20.9844 69.6385 21.513 69.6385 22.1428V27H68.152V22.3217C68.152 21.7682 68.0078 21.3357 67.7195 21.0241C67.4311 20.7093 67.035 20.5518 66.5312 20.5518C66.1866 20.5518 65.88 20.6264 65.6115 20.7756C65.3464 20.9247 65.1359 21.1435 64.9801 21.4318C64.8277 21.7169 64.7514 22.0616 64.7514 22.4659ZM74.4908 27.1491C73.8743 27.1491 73.3241 26.9917 72.8402 26.6768C72.3596 26.3587 71.9818 25.9062 71.7067 25.3196C71.4349 24.7296 71.299 24.022 71.299 23.1967C71.299 22.3714 71.4366 21.6655 71.7116 21.0788C71.9901 20.4922 72.3712 20.0431 72.8551 19.7315C73.339 19.42 73.8875 19.2642 74.5007 19.2642C74.9747 19.2642 75.3558 19.3438 75.6442 19.5028C75.9358 19.6586 76.1612 19.8409 76.3203 20.0497C76.4827 20.2585 76.6087 20.4425 76.6982 20.6016H76.7876V16.8182H78.2741V27H76.8224V25.8118H76.6982C76.6087 25.9742 76.4794 26.1598 76.3104 26.3686C76.1446 26.5774 75.916 26.7597 75.6243 26.9155C75.3326 27.0713 74.9548 27.1491 74.4908 27.1491ZM74.8189 25.8814C75.2464 25.8814 75.6077 25.7687 75.9027 25.5433C76.201 25.3146 76.4264 24.9981 76.5788 24.5938C76.7346 24.1894 76.8125 23.7187 76.8125 23.1818C76.8125 22.6515 76.7363 22.1875 76.5838 21.7898C76.4313 21.392 76.2076 21.0821 75.9126 20.8601C75.6177 20.638 75.2531 20.527 74.8189 20.527C74.3714 20.527 73.9986 20.643 73.7003 20.875C73.402 21.107 73.1766 21.4235 73.0241 21.8246C72.875 22.2256 72.8004 22.678 72.8004 23.1818C72.8004 23.6922 72.8767 24.1513 73.0291 24.5589C73.1816 24.9666 73.407 25.2898 73.7053 25.5284C74.0069 25.7637 74.3781 25.8814 74.8189 25.8814ZM80.3958 27V19.3636H81.8823V27H80.3958ZM81.1465 18.1854C80.888 18.1854 80.6659 18.0992 80.4803 17.9268C80.298 17.7512 80.2069 17.5424 80.2069 17.3004C80.2069 17.0552 80.298 16.8464 80.4803 16.674C80.6659 16.4983 80.888 16.4105 81.1465 16.4105C81.405 16.4105 81.6254 16.4983 81.8077 16.674C81.9933 16.8464 82.0861 17.0552 82.0861 17.3004C82.0861 17.5424 81.9933 17.7512 81.8077 17.9268C81.6254 18.0992 81.405 18.1854 81.1465 18.1854ZM86.7408 27.1491C86.1243 27.1491 85.5741 26.9917 85.0902 26.6768C84.6096 26.3587 84.2318 25.9062 83.9567 25.3196C83.6849 24.7296 83.549 24.022 83.549 23.1967C83.549 22.3714 83.6866 21.6655 83.9616 21.0788C84.2401 20.4922 84.6212 20.0431 85.1051 19.7315C85.589 19.42 86.1375 19.2642 86.7507 19.2642C87.2247 19.2642 87.6058 19.3438 87.8942 19.5028C88.1858 19.6586 88.4112 19.8409 88.5703 20.0497C88.7327 20.2585 88.8587 20.4425 88.9482 20.6016H89.0376V16.8182H90.5241V27H89.0724V25.8118H88.9482C88.8587 25.9742 88.7294 26.1598 88.5604 26.3686C88.3946 26.5774 88.166 26.7597 87.8743 26.9155C87.5826 27.0713 87.2048 27.1491 86.7408 27.1491ZM87.0689 25.8814C87.4964 25.8814 87.8577 25.7687 88.1527 25.5433C88.451 25.3146 88.6764 24.9981 88.8288 24.5938C88.9846 24.1894 89.0625 23.7187 89.0625 23.1818C89.0625 22.6515 88.9863 22.1875 88.8338 21.7898C88.6813 21.392 88.4576 21.0821 88.1626 20.8601C87.8677 20.638 87.5031 20.527 87.0689 20.527C86.6214 20.527 86.2486 20.643 85.9503 20.875C85.652 21.107 85.4266 21.4235 85.2741 21.8246C85.125 22.2256 85.0504 22.678 85.0504 23.1818C85.0504 23.6922 85.1267 24.1513 85.2791 24.5589C85.4316 24.9666 85.657 25.2898 85.9553 25.5284C86.2569 25.7637 86.6281 25.8814 87.0689 25.8814ZM94.8681 27.169C94.3842 27.169 93.9467 27.0795 93.5556 26.9006C93.1645 26.7183 92.8546 26.4548 92.6259 26.1101C92.4005 25.7654 92.2878 25.3428 92.2878 24.8423C92.2878 24.4115 92.3707 24.0568 92.5364 23.7784C92.7021 23.5 92.9258 23.2796 93.2076 23.1172C93.4893 22.9548 93.8042 22.8321 94.1522 22.7493C94.5002 22.6664 94.8548 22.6035 95.2161 22.5604C95.6735 22.5073 96.0447 22.4643 96.3297 22.4311C96.6148 22.3946 96.8219 22.3366 96.9512 22.2571C97.0804 22.1776 97.1451 22.0483 97.1451 21.8693V21.8345C97.1451 21.4003 97.0224 21.0639 96.7772 20.8253C96.5352 20.5866 96.1739 20.4673 95.6934 20.4673C95.1929 20.4673 94.7985 20.5784 94.5101 20.8004C94.2251 21.0192 94.0279 21.2628 93.9185 21.5312L92.5215 21.2131C92.6872 20.7491 92.9292 20.3745 93.2473 20.0895C93.5688 19.8011 93.9384 19.5923 94.356 19.4631C94.7736 19.3305 95.2128 19.2642 95.6735 19.2642C95.9784 19.2642 96.3016 19.3007 96.6429 19.3736C96.9876 19.4432 97.3091 19.5724 97.6074 19.7614C97.909 19.9503 98.156 20.2204 98.3482 20.5717C98.5404 20.9197 98.6365 21.3722 98.6365 21.929V27H97.1848V25.956H97.1252C97.0291 26.1482 96.8849 26.3371 96.6926 26.5227C96.5004 26.7083 96.2535 26.8625 95.9519 26.9851C95.6503 27.1077 95.289 27.169 94.8681 27.169ZM95.1912 25.9759C95.6022 25.9759 95.9535 25.8946 96.2452 25.7322C96.5402 25.5698 96.7639 25.3577 96.9164 25.0959C97.0721 24.8307 97.15 24.5473 97.15 24.2457V23.2614C97.097 23.3144 96.9943 23.3641 96.8418 23.4105C96.6926 23.4536 96.522 23.4917 96.3297 23.5249C96.1375 23.5547 95.9502 23.5829 95.7679 23.6094C95.5856 23.6326 95.4332 23.6525 95.3105 23.669C95.0222 23.7055 94.7587 23.7668 94.5201 23.853C94.2847 23.9392 94.0958 24.0634 93.9533 24.2259C93.8141 24.3849 93.7445 24.5971 93.7445 24.8622C93.7445 25.2301 93.8804 25.5085 94.1522 25.6974C94.4239 25.883 94.7703 25.9759 95.1912 25.9759ZM104.181 19.3636V20.5568H100.01V19.3636H104.181ZM101.129 17.5341H102.615V24.7578C102.615 25.0462 102.658 25.2633 102.744 25.4091C102.83 25.5516 102.942 25.6494 103.077 25.7024C103.217 25.7521 103.367 25.777 103.53 25.777C103.649 25.777 103.754 25.7687 103.843 25.7521C103.933 25.7356 104.002 25.7223 104.052 25.7124L104.32 26.9403C104.234 26.9735 104.112 27.0066 103.952 27.0398C103.793 27.0762 103.594 27.0961 103.356 27.0994C102.965 27.1061 102.6 27.0365 102.262 26.8906C101.924 26.7448 101.651 26.5194 101.442 26.2145C101.233 25.9096 101.129 25.5268 101.129 25.0661V17.5341ZM109.035 27.1541C108.282 27.1541 107.634 26.9934 107.091 26.6719C106.55 26.3471 106.133 25.8913 105.838 25.3047C105.546 24.7147 105.4 24.0237 105.4 23.2315C105.4 22.4493 105.546 21.7599 105.838 21.1634C106.133 20.5668 106.544 20.1011 107.071 19.7663C107.601 19.4316 108.221 19.2642 108.93 19.2642C109.361 19.2642 109.779 19.3355 110.183 19.478C110.587 19.6205 110.95 19.8442 111.272 20.1491C111.593 20.4541 111.847 20.8501 112.032 21.3374C112.218 21.8213 112.311 22.4096 112.311 23.1023V23.6293H106.241V22.5156H110.854C110.854 22.1245 110.775 21.7782 110.616 21.4766C110.456 21.1716 110.233 20.9313 109.944 20.7557C109.659 20.58 109.325 20.4922 108.94 20.4922C108.523 20.4922 108.158 20.5949 107.846 20.8004C107.538 21.0026 107.3 21.2678 107.131 21.5959C106.965 21.9207 106.882 22.2737 106.882 22.6548V23.5249C106.882 24.0353 106.971 24.4695 107.15 24.8274C107.333 25.1854 107.586 25.4588 107.911 25.6477C108.236 25.8333 108.615 25.9261 109.05 25.9261C109.331 25.9261 109.588 25.8864 109.82 25.8068C110.052 25.724 110.253 25.6013 110.422 25.4389C110.591 25.2765 110.72 25.076 110.809 24.8374L112.216 25.0909C112.104 25.5052 111.902 25.8681 111.61 26.1797C111.322 26.4879 110.959 26.7282 110.521 26.9006C110.087 27.0696 109.591 27.1541 109.035 27.1541ZM119.683 21.228L118.335 21.4666C118.279 21.2943 118.189 21.1302 118.067 20.9744C117.947 20.8187 117.785 20.6911 117.58 20.5916C117.374 20.4922 117.117 20.4425 116.809 20.4425C116.388 20.4425 116.037 20.5369 115.755 20.7259C115.473 20.9115 115.332 21.1518 115.332 21.4467C115.332 21.7019 115.427 21.9074 115.616 22.0632C115.805 22.219 116.11 22.3466 116.531 22.446L117.744 22.7244C118.446 22.8868 118.97 23.1371 119.315 23.4751C119.659 23.8132 119.832 24.2524 119.832 24.7926C119.832 25.25 119.699 25.6577 119.434 26.0156C119.172 26.3703 118.806 26.6487 118.335 26.8509C117.868 27.053 117.326 27.1541 116.71 27.1541C115.854 27.1541 115.157 26.9718 114.616 26.6072C114.076 26.2393 113.745 25.7173 113.622 25.0412L115.059 24.8224C115.148 25.197 115.332 25.4804 115.611 25.6726C115.889 25.8615 116.252 25.956 116.7 25.956C117.187 25.956 117.576 25.8549 117.868 25.6527C118.16 25.4472 118.305 25.197 118.305 24.902C118.305 24.6634 118.216 24.4628 118.037 24.3004C117.861 24.138 117.591 24.0154 117.227 23.9325L115.934 23.6491C115.221 23.4867 114.694 23.2282 114.353 22.8736C114.015 22.5189 113.846 22.0698 113.846 21.5263C113.846 21.0755 113.972 20.6811 114.224 20.343C114.476 20.005 114.824 19.7415 115.268 19.5526C115.712 19.3603 116.221 19.2642 116.794 19.2642C117.619 19.2642 118.269 19.4432 118.743 19.8011C119.217 20.1558 119.53 20.6314 119.683 21.228Z" fill="#224DFF"/>
</svg>
