<svg width="45" height="44" viewBox="0 0 45 44" fill="none" xmlns="http://www.w3.org/2000/svg">
<rect x="1.16663" y="0.5" width="43" height="43" rx="11.5" fill="white" stroke="#E5E7ED"/>
<path d="M15.1666 32C14.7666 32 14.4166 31.85 14.1166 31.55C13.8166 31.25 13.6666 30.9 13.6666 30.5V15C13.6666 14.6 13.8166 14.25 14.1166 13.95C14.4166 13.65 14.7666 13.5 15.1666 13.5H16.7916V12H18.4166V13.5H26.9166V12H28.5416V13.5H30.1666C30.5666 13.5 30.9166 13.65 31.2166 13.95C31.5166 14.25 31.6666 14.6 31.6666 15V30.5C31.6666 30.9 31.5166 31.25 31.2166 31.55C30.9166 31.85 30.5666 32 30.1666 32H15.1666ZM15.1666 30.5H30.1666V19.75H15.1666V30.5ZM15.1666 18.25H30.1666V15H15.1666V18.25ZM15.1666 18.25V15V18.25Z" fill="#95AAFF"/>
</svg>
