<svg width="45" height="44" viewBox="0 0 45 44" fill="none" xmlns="http://www.w3.org/2000/svg">
<rect x="0.833252" y="0.5" width="43" height="43" rx="11.5" fill="white" stroke="#E5E7ED"/>
<path d="M13.8333 32C13.4333 32 13.0833 31.85 12.7833 31.55C12.4833 31.25 12.3333 30.9 12.3333 30.5V18.5C12.3333 18.1 12.4833 17.75 12.7833 17.45C13.0833 17.15 13.4333 17 13.8333 17H19.7583V13.5C19.7583 13.1 19.9083 12.75 20.2083 12.45C20.5083 12.15 20.8583 12 21.2583 12H23.4333C23.8333 12 24.1833 12.15 24.4833 12.45C24.7833 12.75 24.9333 13.1 24.9333 13.5V17H30.8333C31.2333 17 31.5833 17.15 31.8833 17.45C32.1833 17.75 32.3333 18.1 32.3333 18.5V30.5C32.3333 30.9 32.1833 31.25 31.8833 31.55C31.5833 31.85 31.2333 32 30.8333 32H13.8333ZM13.8333 30.5H30.8333V18.5H24.9333C24.9333 18.9667 24.7791 19.3333 24.4708 19.6C24.1624 19.8667 23.7749 20 23.3083 20H21.3583C20.9083 20 20.5291 19.8667 20.2208 19.6C19.9124 19.3333 19.7583 18.9667 19.7583 18.5H13.8333V30.5ZM16.1333 27.825H22.1083V27.475C22.1083 27.175 22.0333 26.9083 21.8833 26.675C21.7333 26.4417 21.5416 26.2833 21.3083 26.2C20.7749 26.0167 20.3583 25.8958 20.0583 25.8375C19.7583 25.7792 19.4666 25.75 19.1833 25.75C18.8666 25.75 18.5291 25.7875 18.1708 25.8625C17.8124 25.9375 17.4083 26.05 16.9583 26.2C16.7083 26.2833 16.5083 26.4417 16.3583 26.675C16.2083 26.9083 16.1333 27.175 16.1333 27.475V27.825ZM24.5333 26.15H28.7833V24.9H24.5333V26.15ZM19.1833 24.9C19.5666 24.9 19.8874 24.7667 20.1458 24.5C20.4041 24.2333 20.5333 23.9167 20.5333 23.55C20.5333 23.1667 20.4041 22.8458 20.1458 22.5875C19.8874 22.3292 19.5666 22.2 19.1833 22.2C18.8166 22.2 18.4999 22.3292 18.2333 22.5875C17.9666 22.8458 17.8333 23.1667 17.8333 23.55C17.8333 23.9167 17.9666 24.2333 18.2333 24.5C18.4999 24.7667 18.8166 24.9 19.1833 24.9ZM24.5333 23.325H28.7833V22.075H24.5333V23.325ZM21.2583 18.5H23.4333V13.5H21.2583V18.5Z" fill="#95AAFF"/>
</svg>
