<svg width="45" height="44" viewBox="0 0 45 44" fill="none" xmlns="http://www.w3.org/2000/svg">
<rect x="1.16663" y="0.5" width="43" height="43" rx="11.5" fill="white" stroke="#E5E7ED"/>
<path d="M14.1666 30C13.7666 30 13.4166 29.85 13.1166 29.55C12.8166 29.25 12.6666 28.9 12.6666 28.5V15.5C12.6666 15.1 12.8166 14.75 13.1166 14.45C13.4166 14.15 13.7666 14 14.1666 14H31.1666C31.5666 14 31.9166 14.15 32.2166 14.45C32.5166 14.75 32.6666 15.1 32.6666 15.5V28.5C32.6666 28.9 32.5166 29.25 32.2166 29.55C31.9166 29.85 31.5666 30 31.1666 30H14.1666ZM22.6666 22.45L14.1666 16.875V28.5H31.1666V16.875L22.6666 22.45ZM22.6666 20.95L31.0666 15.5H14.2916L22.6666 20.95ZM14.1666 16.875V15.5V28.5V16.875Z" fill="#95AAFF"/>
</svg>
