<svg width="83" height="36" viewBox="0 0 83 36" fill="none" xmlns="http://www.w3.org/2000/svg">
<rect width="83" height="36" rx="6" fill="#224DFF"/>
<path d="M17.1186 23V12.8182H23.5021V14.1406H18.6548V17.2429H23.169V18.5604H18.6548V21.6776H23.5618V23H17.1186ZM26.9213 18.4659V23H25.4348V15.3636H26.8617V16.6065H26.9561C27.1318 16.2022 27.4069 15.8774 27.7814 15.6321C28.1593 15.3868 28.6349 15.2642 29.2083 15.2642C29.7286 15.2642 30.1844 15.3736 30.5755 15.5923C30.9666 15.8078 31.2698 16.1293 31.4853 16.5568C31.7007 16.9844 31.8084 17.513 31.8084 18.1428V23H30.3219V18.3217C30.3219 17.7682 30.1777 17.3357 29.8894 17.0241C29.601 16.7093 29.205 16.5518 28.7012 16.5518C28.3565 16.5518 28.0499 16.6264 27.7814 16.7756C27.5163 16.9247 27.3058 17.1435 27.15 17.4318C26.9976 17.7169 26.9213 18.0616 26.9213 18.4659ZM37.0037 26.0227C36.3972 26.0227 35.8752 25.9432 35.4377 25.7841C35.0035 25.625 34.6489 25.4145 34.3738 25.1527C34.0987 24.8909 33.8932 24.6042 33.7573 24.2926L35.035 23.7656C35.1245 23.9115 35.2438 24.0656 35.3929 24.228C35.5454 24.3937 35.7509 24.5346 36.0094 24.6506C36.2712 24.7666 36.6077 24.8246 37.0186 24.8246C37.5821 24.8246 38.0478 24.687 38.4157 24.4119C38.7836 24.1402 38.9675 23.706 38.9675 23.1094V21.608H38.873C38.7836 21.7704 38.6543 21.951 38.4853 22.1499C38.3195 22.3487 38.0909 22.5211 37.7992 22.6669C37.5075 22.8127 37.128 22.8857 36.6607 22.8857C36.0575 22.8857 35.5139 22.7448 35.03 22.4631C34.5494 22.178 34.1683 21.7588 33.8865 21.2053C33.6081 20.6484 33.4689 19.964 33.4689 19.152C33.4689 18.34 33.6065 17.6439 33.8816 17.0639C34.16 16.4839 34.5411 16.0398 35.025 15.7315C35.5089 15.42 36.0575 15.2642 36.6706 15.2642C37.1446 15.2642 37.5274 15.3438 37.8191 15.5028C38.1107 15.6586 38.3378 15.8409 38.5002 16.0497C38.6659 16.2585 38.7935 16.4425 38.883 16.6016H38.9924V15.3636H40.449V23.169C40.449 23.8253 40.2966 24.3639 39.9917 24.7848C39.6867 25.2057 39.2741 25.5173 38.7537 25.7195C38.2367 25.9216 37.6534 26.0227 37.0037 26.0227ZM36.9888 21.6527C37.4164 21.6527 37.7776 21.5533 38.0726 21.3544C38.3709 21.1522 38.5963 20.8639 38.7488 20.4893C38.9045 20.1115 38.9824 19.6591 38.9824 19.1321C38.9824 18.6184 38.9062 18.166 38.7537 17.7749C38.6013 17.3838 38.3775 17.0788 38.0826 16.8601C37.7876 16.638 37.423 16.527 36.9888 16.527C36.5414 16.527 36.1685 16.643 35.8702 16.875C35.5719 17.1037 35.3465 17.4152 35.1941 17.8097C35.0449 18.2041 34.9703 18.6449 34.9703 19.1321C34.9703 19.6326 35.0466 20.0717 35.199 20.4496C35.3515 20.8274 35.5769 21.1224 35.8752 21.3345C36.1768 21.5466 36.548 21.6527 36.9888 21.6527ZM44.665 23.169C44.181 23.169 43.7435 23.0795 43.3525 22.9006C42.9614 22.7183 42.6515 22.4548 42.4228 22.1101C42.1974 21.7654 42.0847 21.3428 42.0847 20.8423C42.0847 20.4115 42.1676 20.0568 42.3333 19.7784C42.499 19.5 42.7227 19.2796 43.0044 19.1172C43.2862 18.9548 43.601 18.8321 43.949 18.7493C44.2971 18.6664 44.6517 18.6035 45.013 18.5604C45.4703 18.5073 45.8416 18.4643 46.1266 18.4311C46.4116 18.3946 46.6188 18.3366 46.748 18.2571C46.8773 18.1776 46.9419 18.0483 46.9419 17.8693V17.8345C46.9419 17.4003 46.8193 17.0639 46.574 16.8253C46.3321 16.5866 45.9708 16.4673 45.4902 16.4673C44.9898 16.4673 44.5953 16.5784 44.307 16.8004C44.022 17.0192 43.8248 17.2628 43.7154 17.5312L42.3184 17.2131C42.4841 16.7491 42.726 16.3745 43.0442 16.0895C43.3657 15.8011 43.7353 15.5923 44.1529 15.4631C44.5705 15.3305 45.0096 15.2642 45.4703 15.2642C45.7753 15.2642 46.0984 15.3007 46.4398 15.3736C46.7845 15.4432 47.106 15.5724 47.4043 15.7614C47.7059 15.9503 47.9528 16.2204 48.1451 16.5717C48.3373 16.9197 48.4334 17.3722 48.4334 17.929V23H46.9817V21.956H46.9221C46.8259 22.1482 46.6818 22.3371 46.4895 22.5227C46.2973 22.7083 46.0504 22.8625 45.7488 22.9851C45.4471 23.1077 45.0859 23.169 44.665 23.169ZM44.9881 21.9759C45.3991 21.9759 45.7504 21.8946 46.0421 21.7322C46.3371 21.5698 46.5608 21.3577 46.7132 21.0959C46.869 20.8307 46.9469 20.5473 46.9469 20.2457V19.2614C46.8939 19.3144 46.7911 19.3641 46.6387 19.4105C46.4895 19.4536 46.3188 19.4917 46.1266 19.5249C45.9344 19.5547 45.7471 19.5829 45.5648 19.6094C45.3825 19.6326 45.2301 19.6525 45.1074 19.669C44.8191 19.7055 44.5556 19.7668 44.3169 19.853C44.0816 19.9392 43.8927 20.0634 43.7502 20.2259C43.611 20.3849 43.5414 20.5971 43.5414 20.8622C43.5414 21.2301 43.6773 21.5085 43.949 21.6974C44.2208 21.883 44.5672 21.9759 44.9881 21.9759ZM53.6151 26.0227C53.0085 26.0227 52.4865 25.9432 52.049 25.7841C51.6148 25.625 51.2602 25.4145 50.9851 25.1527C50.71 24.8909 50.5045 24.6042 50.3686 24.2926L51.6463 23.7656C51.7358 23.9115 51.8551 24.0656 52.0043 24.228C52.1567 24.3937 52.3622 24.5346 52.6207 24.6506C52.8826 24.7666 53.219 24.8246 53.63 24.8246C54.1934 24.8246 54.6591 24.687 55.027 24.4119C55.3949 24.1402 55.5788 23.706 55.5788 23.1094V21.608H55.4844C55.3949 21.7704 55.2656 21.951 55.0966 22.1499C54.9309 22.3487 54.7022 22.5211 54.4105 22.6669C54.1188 22.8127 53.7393 22.8857 53.272 22.8857C52.6688 22.8857 52.1252 22.7448 51.6413 22.4631C51.1607 22.178 50.7796 21.7588 50.4979 21.2053C50.2195 20.6484 50.0803 19.964 50.0803 19.152C50.0803 18.34 50.2178 17.6439 50.4929 17.0639C50.7713 16.4839 51.1525 16.0398 51.6364 15.7315C52.1203 15.42 52.6688 15.2642 53.282 15.2642C53.7559 15.2642 54.1387 15.3438 54.4304 15.5028C54.7221 15.6586 54.9491 15.8409 55.1115 16.0497C55.2772 16.2585 55.4048 16.4425 55.4943 16.6016H55.6037V15.3636H57.0604V23.169C57.0604 23.8253 56.9079 24.3639 56.603 24.7848C56.2981 25.2057 55.8854 25.5173 55.3651 25.7195C54.848 25.9216 54.2647 26.0227 53.6151 26.0227ZM53.6001 21.6527C54.0277 21.6527 54.389 21.5533 54.6839 21.3544C54.9822 21.1522 55.2076 20.8639 55.3601 20.4893C55.5159 20.1115 55.5938 19.6591 55.5938 19.1321C55.5938 18.6184 55.5175 18.166 55.3651 17.7749C55.2126 17.3838 54.9889 17.0788 54.6939 16.8601C54.3989 16.638 54.0343 16.527 53.6001 16.527C53.1527 16.527 52.7798 16.643 52.4815 16.875C52.1832 17.1037 51.9579 17.4152 51.8054 17.8097C51.6563 18.2041 51.5817 18.6449 51.5817 19.1321C51.5817 19.6326 51.6579 20.0717 51.8104 20.4496C51.9628 20.8274 52.1882 21.1224 52.4865 21.3345C52.7881 21.5466 53.1593 21.6527 53.6001 21.6527ZM62.3452 23.1541C61.5928 23.1541 60.9448 22.9934 60.4013 22.6719C59.861 22.3471 59.4434 21.8913 59.1484 21.3047C58.8568 20.7147 58.7109 20.0237 58.7109 19.2315C58.7109 18.4493 58.8568 17.7599 59.1484 17.1634C59.4434 16.5668 59.8544 16.1011 60.3814 15.7663C60.9117 15.4316 61.5315 15.2642 62.2408 15.2642C62.6716 15.2642 63.0893 15.3355 63.4936 15.478C63.898 15.6205 64.2609 15.8442 64.5824 16.1491C64.9039 16.4541 65.1574 16.8501 65.343 17.3374C65.5286 17.8213 65.6214 18.4096 65.6214 19.1023V19.6293H59.5511V18.5156H64.1648C64.1648 18.1245 64.0852 17.7782 63.9261 17.4766C63.767 17.1716 63.5433 16.9313 63.255 16.7557C62.9699 16.58 62.6352 16.4922 62.2507 16.4922C61.8331 16.4922 61.4685 16.5949 61.157 16.8004C60.8487 17.0026 60.6101 17.2678 60.4411 17.5959C60.2753 17.9207 60.1925 18.2737 60.1925 18.6548V19.5249C60.1925 20.0353 60.282 20.4695 60.4609 20.8274C60.6432 21.1854 60.8968 21.4588 61.2216 21.6477C61.5464 21.8333 61.9259 21.9261 62.3601 21.9261C62.6418 21.9261 62.8987 21.8864 63.1307 21.8068C63.3627 21.724 63.5632 21.6013 63.7322 21.4389C63.9013 21.2765 64.0305 21.076 64.12 20.8374L65.527 21.0909C65.4143 21.5052 65.2121 21.8681 64.9205 22.1797C64.6321 22.4879 64.2692 22.7282 63.8317 22.9006C63.3975 23.0696 62.902 23.1541 62.3452 23.1541Z" fill="white"/>
</svg>
