<svg width="101" height="36" viewBox="0 0 101 36" fill="none" xmlns="http://www.w3.org/2000/svg">
<rect x="0.5" y="0.5" width="100" height="35" rx="5.5" fill="white"/>
<path d="M20.5833 24.6666C20.25 24.6666 19.9583 24.5416 19.7083 24.2916C19.4583 24.0416 19.3333 23.7499 19.3333 23.4166V20.4374H20.5833V23.4166H31.4166V20.4374H32.6666V23.4166C32.6666 23.7499 32.5416 24.0416 32.2916 24.2916C32.0416 24.5416 31.75 24.6666 31.4166 24.6666H20.5833ZM26 21.4791L21.9791 17.4583L22.875 16.5624L25.375 19.0624V11.3333H26.625V19.0624L29.125 16.5624L30.0208 17.4583L26 21.4791Z" fill="#696A6E"/>
<path d="M41.1186 23V12.8182H47.5021V14.1406H42.6548V17.2429H47.169V18.5604H42.6548V21.6776H47.5618V23H41.1186ZM50.6081 15.3636L52.2935 18.3366L53.9938 15.3636H55.6195L53.2381 19.1818L55.6394 23H54.0137L52.2935 20.1463L50.5783 23H48.9476L51.324 19.1818L48.9775 15.3636H50.6081ZM57.1458 25.8636V15.3636H58.5975V16.6016H58.7218C58.8079 16.4425 58.9322 16.2585 59.0946 16.0497C59.257 15.8409 59.4824 15.6586 59.7708 15.5028C60.0591 15.3438 60.4403 15.2642 60.9142 15.2642C61.5307 15.2642 62.0809 15.42 62.5648 15.7315C63.0487 16.0431 63.4282 16.4922 63.7033 17.0788C63.9817 17.6655 64.1209 18.3714 64.1209 19.1967C64.1209 20.022 63.9834 20.7296 63.7083 21.3196C63.4332 21.9062 63.0553 22.3587 62.5748 22.6768C62.0942 22.9917 61.5456 23.1491 60.9292 23.1491C60.4651 23.1491 60.0856 23.0713 59.7907 22.9155C59.499 22.7597 59.2703 22.5774 59.1046 22.3686C58.9389 22.1598 58.8113 21.9742 58.7218 21.8118H58.6323V25.8636H57.1458ZM58.6025 19.1818C58.6025 19.7187 58.6803 20.1894 58.8361 20.5938C58.9919 20.9981 59.2173 21.3146 59.5123 21.5433C59.8072 21.7687 60.1685 21.8814 60.5961 21.8814C61.0402 21.8814 61.4114 21.7637 61.7097 21.5284C62.008 21.2898 62.2334 20.9666 62.3858 20.5589C62.5416 20.1513 62.6195 19.6922 62.6195 19.1818C62.6195 18.678 62.5433 18.2256 62.3908 17.8246C62.2417 17.4235 62.0163 17.107 61.7147 16.875C61.4164 16.643 61.0435 16.527 60.5961 16.527C60.1652 16.527 59.8006 16.638 59.5023 16.8601C59.2073 17.0821 58.9836 17.392 58.8311 17.7898C58.6787 18.1875 58.6025 18.6515 58.6025 19.1818ZM69.003 23.1541C68.2871 23.1541 67.6623 22.9901 67.1287 22.6619C66.5951 22.3338 66.1808 21.8748 65.8858 21.2848C65.5908 20.6948 65.4434 20.0054 65.4434 19.2166C65.4434 18.4245 65.5908 17.7318 65.8858 17.1385C66.1808 16.5452 66.5951 16.0845 67.1287 15.7564C67.6623 15.4283 68.2871 15.2642 69.003 15.2642C69.7189 15.2642 70.3437 15.4283 70.8773 15.7564C71.4109 16.0845 71.8252 16.5452 72.1202 17.1385C72.4152 17.7318 72.5627 18.4245 72.5627 19.2166C72.5627 20.0054 72.4152 20.6948 72.1202 21.2848C71.8252 21.8748 71.4109 22.3338 70.8773 22.6619C70.3437 22.9901 69.7189 23.1541 69.003 23.1541ZM69.008 21.9062C69.472 21.9062 69.8565 21.7836 70.1614 21.5384C70.4663 21.2931 70.6917 20.9666 70.8375 20.5589C70.9867 20.1513 71.0613 19.7022 71.0613 19.2116C71.0613 18.7244 70.9867 18.277 70.8375 17.8693C70.6917 17.4583 70.4663 17.1286 70.1614 16.88C69.8565 16.6314 69.472 16.5071 69.008 16.5071C68.5407 16.5071 68.1529 16.6314 67.8446 16.88C67.5397 17.1286 67.3127 17.4583 67.1635 17.8693C67.0177 18.277 66.9448 18.7244 66.9448 19.2116C66.9448 19.7022 67.0177 20.1513 67.1635 20.5589C67.3127 20.9666 67.5397 21.2931 67.8446 21.5384C68.1529 21.7836 68.5407 21.9062 69.008 21.9062ZM74.2219 23V15.3636H75.6587V16.5767H75.7383C75.8775 16.1657 76.1228 15.8426 76.4741 15.6072C76.8287 15.3686 77.2298 15.2493 77.6772 15.2493C77.77 15.2493 77.8794 15.2526 78.0053 15.2592C78.1346 15.2659 78.2357 15.2741 78.3086 15.2841V16.706C78.2489 16.6894 78.1429 16.6712 77.9904 16.6513C77.8379 16.6281 77.6855 16.6165 77.533 16.6165C77.1817 16.6165 76.8685 16.6911 76.5934 16.8402C76.3216 16.986 76.1062 17.1899 75.9471 17.4517C75.788 17.7102 75.7085 18.0052 75.7085 18.3366V23H74.2219ZM83.6108 15.3636V16.5568H79.4396V15.3636H83.6108ZM80.5582 13.5341H82.0447V20.7578C82.0447 21.0462 82.0878 21.2633 82.174 21.4091C82.2602 21.5516 82.3712 21.6494 82.5071 21.7024C82.6463 21.7521 82.7971 21.777 82.9595 21.777C83.0788 21.777 83.1832 21.7687 83.2727 21.7521C83.3622 21.7356 83.4318 21.7223 83.4815 21.7124L83.75 22.9403C83.6638 22.9735 83.5412 23.0066 83.3821 23.0398C83.223 23.0762 83.0241 23.0961 82.7855 23.0994C82.3944 23.1061 82.0298 23.0365 81.6918 22.8906C81.3537 22.7448 81.0803 22.5194 80.8714 22.2145C80.6626 21.9096 80.5582 21.5268 80.5582 21.0661V13.5341Z" fill="#696A6E"/>
<rect x="0.5" y="0.5" width="100" height="35" rx="5.5" stroke="#E5E7ED"/>
</svg>
