<svg width="24" height="24" viewBox="0 0 24 24" fill="none" xmlns="http://www.w3.org/2000/svg">
<path d="M16.9091 14.9091H7.5C5.69182 14.9091 4.22727 13.6073 4.22727 12C4.22727 10.3927 5.69182 9.09091 7.5 9.09091H17.7273C18.8564 9.09091 19.7727 9.90545 19.7727 10.9091C19.7727 11.9127 18.8564 12.7273 17.7273 12.7273H9.13636C8.68636 12.7273 8.31818 12.4 8.31818 12C8.31818 11.6 8.68636 11.2727 9.13636 11.2727H16.9091V10.1818H9.13636C8.00727 10.1818 7.09091 10.9964 7.09091 12C7.09091 13.0036 8.00727 13.8182 9.13636 13.8182H17.7273C19.5355 13.8182 21 12.5164 21 10.9091C21 9.30182 19.5355 8 17.7273 8H7.5C5.01273 8 3 9.78909 3 12C3 14.2109 5.01273 16 7.5 16H16.9091V14.9091Z" fill="#696A6E"/>
</svg>
