<svg width="90" height="36" viewBox="0 0 90 36" fill="none" xmlns="http://www.w3.org/2000/svg">
<rect x="0.5" y="0.5" width="89" height="35" rx="5.5" fill="white"/>
<path d="M24.3333 23V21.75H27.6667V23H24.3333ZM21 18.625V17.375H31V18.625H21ZM18.5 14.25V13H33.5V14.25H18.5Z" fill="#696A6E"/>
<path d="M41.1186 23V12.8182H47.4325V14.1406H42.6548V17.2429H46.9801V18.5604H42.6548V23H41.1186ZM49.2024 23V15.3636H50.6889V23H49.2024ZM49.9531 14.1854C49.6946 14.1854 49.4725 14.0992 49.2869 13.9268C49.1046 13.7512 49.0135 13.5424 49.0135 13.3004C49.0135 13.0552 49.1046 12.8464 49.2869 12.674C49.4725 12.4983 49.6946 12.4105 49.9531 12.4105C50.2116 12.4105 50.4321 12.4983 50.6143 12.674C50.8 12.8464 50.8928 13.0552 50.8928 13.3004C50.8928 13.5424 50.8 13.7512 50.6143 13.9268C50.4321 14.0992 50.2116 14.1854 49.9531 14.1854ZM54.1752 12.8182V23H52.6887V12.8182H54.1752ZM59.7397 15.3636V16.5568H55.5685V15.3636H59.7397ZM56.6871 13.5341H58.1737V20.7578C58.1737 21.0462 58.2167 21.2633 58.3029 21.4091C58.3891 21.5516 58.5001 21.6494 58.636 21.7024C58.7752 21.7521 58.926 21.777 59.0884 21.777C59.2077 21.777 59.3121 21.7687 59.4016 21.7521C59.4911 21.7356 59.5607 21.7223 59.6104 21.7124L59.8789 22.9403C59.7927 22.9735 59.6701 23.0066 59.511 23.0398C59.3519 23.0762 59.1531 23.0961 58.9144 23.0994C58.5233 23.1061 58.1587 23.0365 57.8207 22.8906C57.4826 22.7448 57.2092 22.5194 57.0004 22.2145C56.7915 21.9096 56.6871 21.5268 56.6871 21.0661V13.5341ZM64.5932 23.1541C63.8408 23.1541 63.1929 22.9934 62.6493 22.6719C62.1091 22.3471 61.6915 21.8913 61.3965 21.3047C61.1048 20.7147 60.959 20.0237 60.959 19.2315C60.959 18.4493 61.1048 17.7599 61.3965 17.1634C61.6915 16.5668 62.1025 16.1011 62.6294 15.7663C63.1597 15.4316 63.7795 15.2642 64.4888 15.2642C64.9197 15.2642 65.3373 15.3355 65.7417 15.478C66.146 15.6205 66.5089 15.8442 66.8304 16.1491C67.1519 16.4541 67.4055 16.8501 67.5911 17.3374C67.7767 17.8213 67.8695 18.4096 67.8695 19.1023V19.6293H61.7992V18.5156H66.4128C66.4128 18.1245 66.3333 17.7782 66.1742 17.4766C66.0151 17.1716 65.7914 16.9313 65.503 16.7557C65.218 16.58 64.8832 16.4922 64.4988 16.4922C64.0811 16.4922 63.7166 16.5949 63.405 16.8004C63.0968 17.0026 62.8581 17.2678 62.6891 17.5959C62.5234 17.9207 62.4405 18.2737 62.4405 18.6548V19.5249C62.4405 20.0353 62.53 20.4695 62.709 20.8274C62.8913 21.1854 63.1448 21.4588 63.4696 21.6477C63.7944 21.8333 64.1739 21.9261 64.6081 21.9261C64.8899 21.9261 65.1467 21.8864 65.3787 21.8068C65.6107 21.724 65.8113 21.6013 65.9803 21.4389C66.1493 21.2765 66.2786 21.076 66.3681 20.8374L67.775 21.0909C67.6623 21.5052 67.4602 21.8681 67.1685 22.1797C66.8801 22.4879 66.5172 22.7282 66.0797 22.9006C65.6455 23.0696 65.15 23.1541 64.5932 23.1541ZM69.5188 23V15.3636H70.9556V16.5767H71.0352C71.1744 16.1657 71.4196 15.8426 71.771 15.6072C72.1256 15.3686 72.5266 15.2493 72.9741 15.2493C73.0669 15.2493 73.1763 15.2526 73.3022 15.2592C73.4315 15.2659 73.5326 15.2741 73.6055 15.2841V16.706C73.5458 16.6894 73.4397 16.6712 73.2873 16.6513C73.1348 16.6281 72.9824 16.6165 72.8299 16.6165C72.4786 16.6165 72.1654 16.6911 71.8903 16.8402C71.6185 16.986 71.4031 17.1899 71.244 17.4517C71.0849 17.7102 71.0053 18.0052 71.0053 18.3366V23H69.5188Z" fill="#696A6E"/>
<rect x="0.5" y="0.5" width="89" height="35" rx="5.5" stroke="#E5E7ED"/>
</svg>
