<svg width="206" height="44" viewBox="0 0 206 44" fill="none" xmlns="http://www.w3.org/2000/svg">
<rect width="206" height="44" rx="8" fill="white"/>
<path fill-rule="evenodd" clip-rule="evenodd" d="M15 13V21.25H23.25V13H15ZM15 22.75V31H23.25V22.75H15ZM24.75 13V21.25H33V13H24.75ZM21.75 19.75H16.5V14.5H21.75V19.75ZM31.5 19.75H26.25V14.5H31.5V19.75ZM21.75 29.5H16.5V24.25H21.75V29.5Z" fill="#3E414D"/>
<path fill-rule="evenodd" clip-rule="evenodd" d="M24.75 31V22.75H33V31H24.75ZM31.5 29.5H26.25V24.25H31.5V29.5Z" fill="#224DFF"/>
<path d="M45.1186 27V16.8182H46.6548V21.2429H51.7308V16.8182H53.272V27H51.7308V22.5604H46.6548V27H45.1186ZM58.6065 27.1541C57.8906 27.1541 57.2659 26.9901 56.7322 26.6619C56.1986 26.3338 55.7843 25.8748 55.4893 25.2848C55.1944 24.6948 55.0469 24.0054 55.0469 23.2166C55.0469 22.4245 55.1944 21.7318 55.4893 21.1385C55.7843 20.5452 56.1986 20.0845 56.7322 19.7564C57.2659 19.4283 57.8906 19.2642 58.6065 19.2642C59.3224 19.2642 59.9472 19.4283 60.4808 19.7564C61.0144 20.0845 61.4287 20.5452 61.7237 21.1385C62.0187 21.7318 62.1662 22.4245 62.1662 23.2166C62.1662 24.0054 62.0187 24.6948 61.7237 25.2848C61.4287 25.8748 61.0144 26.3338 60.4808 26.6619C59.9472 26.9901 59.3224 27.1541 58.6065 27.1541ZM58.6115 25.9062C59.0755 25.9062 59.46 25.7836 59.7649 25.5384C60.0698 25.2931 60.2952 24.9666 60.4411 24.5589C60.5902 24.1513 60.6648 23.7022 60.6648 23.2116C60.6648 22.7244 60.5902 22.277 60.4411 21.8693C60.2952 21.4583 60.0698 21.1286 59.7649 20.88C59.46 20.6314 59.0755 20.5071 58.6115 20.5071C58.1442 20.5071 57.7564 20.6314 57.4482 20.88C57.1432 21.1286 56.9162 21.4583 56.767 21.8693C56.6212 22.277 56.5483 22.7244 56.5483 23.2116C56.5483 23.7022 56.6212 24.1513 56.767 24.5589C56.9162 24.9666 57.1432 25.2931 57.4482 25.5384C57.7564 25.7836 58.1442 25.9062 58.6115 25.9062ZM63.8255 27V19.3636H65.2523V20.6065H65.3468C65.5059 20.1856 65.766 19.8575 66.1273 19.6222C66.4886 19.3835 66.9211 19.2642 67.4249 19.2642C67.9353 19.2642 68.3629 19.3835 68.7076 19.6222C69.0556 19.8608 69.3124 20.1889 69.4782 20.6065H69.5577C69.74 20.1989 70.03 19.8741 70.4277 19.6321C70.8255 19.3868 71.2994 19.2642 71.8496 19.2642C72.5423 19.2642 73.1074 19.4813 73.5449 19.9155C73.9857 20.3497 74.2061 21.0043 74.2061 21.8793V27H72.7196V22.0185C72.7196 21.5014 72.5788 21.1269 72.2971 20.8949C72.0153 20.6629 71.6789 20.5469 71.2878 20.5469C70.8039 20.5469 70.4277 20.696 70.1593 20.9943C69.8908 21.2893 69.7566 21.6688 69.7566 22.1328V27H68.275V21.924C68.275 21.5097 68.1458 21.1766 67.8873 20.9247C67.6287 20.6728 67.2923 20.5469 66.878 20.5469C66.5963 20.5469 66.3361 20.6214 66.0975 20.7706C65.8622 20.9164 65.6716 21.1203 65.5257 21.3821C65.3832 21.6439 65.312 21.9472 65.312 22.2919V27H63.8255ZM79.4897 27.1541C78.7373 27.1541 78.0894 26.9934 77.5458 26.6719C77.0056 26.3471 76.5879 25.8913 76.293 25.3047C76.0013 24.7147 75.8555 24.0237 75.8555 23.2315C75.8555 22.4493 76.0013 21.7599 76.293 21.1634C76.5879 20.5668 76.9989 20.1011 77.5259 19.7663C78.0562 19.4316 78.676 19.2642 79.3853 19.2642C79.8162 19.2642 80.2338 19.3355 80.6381 19.478C81.0425 19.6205 81.4054 19.8442 81.7269 20.1491C82.0484 20.4541 82.302 20.8501 82.4876 21.3374C82.6732 21.8213 82.766 22.4096 82.766 23.1023V23.6293H76.6957V22.5156H81.3093C81.3093 22.1245 81.2298 21.7782 81.0707 21.4766C80.9116 21.1716 80.6879 20.9313 80.3995 20.7557C80.1145 20.58 79.7797 20.4922 79.3952 20.4922C78.9776 20.4922 78.613 20.5949 78.3015 20.8004C77.9933 21.0026 77.7546 21.2678 77.5856 21.5959C77.4199 21.9207 77.337 22.2737 77.337 22.6548V23.5249C77.337 24.0353 77.4265 24.4695 77.6055 24.8274C77.7878 25.1854 78.0413 25.4588 78.3661 25.6477C78.6909 25.8333 79.0704 25.9261 79.5046 25.9261C79.7863 25.9261 80.0432 25.8864 80.2752 25.8068C80.5072 25.724 80.7077 25.6013 80.8768 25.4389C81.0458 25.2765 81.1751 25.076 81.2646 24.8374L82.6715 25.0909C82.5588 25.5052 82.3567 25.8681 82.065 26.1797C81.7766 26.4879 81.4137 26.7282 80.9762 26.9006C80.542 27.0696 80.0465 27.1541 79.4897 27.1541Z" fill="#2C2C2E"/>
</svg>
