<svg width="44" height="44" viewBox="0 0 44 44" fill="none" xmlns="http://www.w3.org/2000/svg">
<rect x="0.5" y="0.5" width="43" height="43" rx="11.5" fill="white" stroke="#E5E7ED"/>
<path d="M13.5 32C13.1 32 12.75 31.85 12.45 31.55C12.15 31.25 12 30.9 12 30.5V18.5C12 18.1 12.15 17.75 12.45 17.45C12.75 17.15 13.1 17 13.5 17H19.425V13.5C19.425 13.1 19.575 12.75 19.875 12.45C20.175 12.15 20.525 12 20.925 12H23.1C23.5 12 23.85 12.15 24.15 12.45C24.45 12.75 24.6 13.1 24.6 13.5V17H30.5C30.9 17 31.25 17.15 31.55 17.45C31.85 17.75 32 18.1 32 18.5V30.5C32 30.9 31.85 31.25 31.55 31.55C31.25 31.85 30.9 32 30.5 32H13.5ZM13.5 30.5H30.5V18.5H24.6C24.6 18.9667 24.4458 19.3333 24.1375 19.6C23.8292 19.8667 23.4417 20 22.975 20H21.025C20.575 20 20.1958 19.8667 19.8875 19.6C19.5792 19.3333 19.425 18.9667 19.425 18.5H13.5V30.5ZM15.8 27.825H21.775V27.475C21.775 27.175 21.7 26.9083 21.55 26.675C21.4 26.4417 21.2083 26.2833 20.975 26.2C20.4417 26.0167 20.025 25.8958 19.725 25.8375C19.425 25.7792 19.1333 25.75 18.85 25.75C18.5333 25.75 18.1958 25.7875 17.8375 25.8625C17.4792 25.9375 17.075 26.05 16.625 26.2C16.375 26.2833 16.175 26.4417 16.025 26.675C15.875 26.9083 15.8 27.175 15.8 27.475V27.825ZM24.2 26.15H28.45V24.9H24.2V26.15ZM18.85 24.9C19.2333 24.9 19.5542 24.7667 19.8125 24.5C20.0708 24.2333 20.2 23.9167 20.2 23.55C20.2 23.1667 20.0708 22.8458 19.8125 22.5875C19.5542 22.3292 19.2333 22.2 18.85 22.2C18.4833 22.2 18.1667 22.3292 17.9 22.5875C17.6333 22.8458 17.5 23.1667 17.5 23.55C17.5 23.9167 17.6333 24.2333 17.9 24.5C18.1667 24.7667 18.4833 24.9 18.85 24.9ZM24.2 23.325H28.45V22.075H24.2V23.325ZM20.925 18.5H23.1V13.5H20.925V18.5Z" fill="#95AAFF"/>
</svg>
