<svg width="206" height="44" viewBox="0 0 206 44" fill="none" xmlns="http://www.w3.org/2000/svg">
<rect width="206" height="44" rx="8" fill="white"/>
<path d="M19.975 23.5H28.025V22H19.975V23.5Z" fill="#224DFF"/>
<path fill-rule="evenodd" clip-rule="evenodd" d="M17.5 32C17.1 32 16.75 31.85 16.45 31.55C16.15 31.25 16 30.9 16 30.5V13.5C16 13.1 16.15 12.75 16.45 12.45C16.75 12.15 17.1 12 17.5 12H26.525L32 17.475V30.5C32 30.9 31.85 31.25 31.55 31.55C31.25 31.85 30.9 32 30.5 32H17.5ZM25.775 18.15V13.5H17.5V30.5H30.5V18.15H25.775Z" fill="#3E414D"/>
<path d="M19.975 27.75H28.025V26.25H19.975V27.75Z" fill="#224DFF"/>
<path d="M45.1186 27V16.8182H46.6548V25.6776H51.2685V27H45.1186ZM56.1183 27.1541C55.4023 27.1541 54.7776 26.9901 54.244 26.6619C53.7103 26.3338 53.296 25.8748 53.0011 25.2848C52.7061 24.6948 52.5586 24.0054 52.5586 23.2166C52.5586 22.4245 52.7061 21.7318 53.0011 21.1385C53.296 20.5452 53.7103 20.0845 54.244 19.7564C54.7776 19.4283 55.4023 19.2642 56.1183 19.2642C56.8342 19.2642 57.4589 19.4283 57.9925 19.7564C58.5262 20.0845 58.9405 20.5452 59.2354 21.1385C59.5304 21.7318 59.6779 22.4245 59.6779 23.2166C59.6779 24.0054 59.5304 24.6948 59.2354 25.2848C58.9405 25.8748 58.5262 26.3338 57.9925 26.6619C57.4589 26.9901 56.8342 27.1541 56.1183 27.1541ZM56.1232 25.9062C56.5872 25.9062 56.9717 25.7836 57.2766 25.5384C57.5816 25.2931 57.8069 24.9666 57.9528 24.5589C58.1019 24.1513 58.1765 23.7022 58.1765 23.2116C58.1765 22.7244 58.1019 22.277 57.9528 21.8693C57.8069 21.4583 57.5816 21.1286 57.2766 20.88C56.9717 20.6314 56.5872 20.5071 56.1232 20.5071C55.6559 20.5071 55.2681 20.6314 54.9599 20.88C54.6549 21.1286 54.4279 21.4583 54.2788 21.8693C54.1329 22.277 54.06 22.7244 54.06 23.2116C54.06 23.7022 54.1329 24.1513 54.2788 24.5589C54.4279 24.9666 54.6549 25.2931 54.9599 25.5384C55.2681 25.7836 55.6559 25.9062 56.1232 25.9062ZM64.5389 30.0227C63.9324 30.0227 63.4103 29.9432 62.9728 29.7841C62.5386 29.625 62.184 29.4145 61.9089 29.1527C61.6338 28.8909 61.4283 28.6042 61.2924 28.2926L62.5701 27.7656C62.6596 27.9115 62.7789 28.0656 62.9281 28.228C63.0806 28.3937 63.286 28.5346 63.5446 28.6506C63.8064 28.7666 64.1428 28.8246 64.5538 28.8246C65.1172 28.8246 65.5829 28.687 65.9508 28.4119C66.3187 28.1402 66.5027 27.706 66.5027 27.1094V25.608H66.4082C66.3187 25.7704 66.1895 25.951 66.0204 26.1499C65.8547 26.3487 65.626 26.5211 65.3343 26.6669C65.0427 26.8127 64.6632 26.8857 64.1958 26.8857C63.5926 26.8857 63.0491 26.7448 62.5652 26.4631C62.0846 26.178 61.7034 25.7588 61.4217 25.2053C61.1433 24.6484 61.0041 23.964 61.0041 23.152C61.0041 22.34 61.1416 21.6439 61.4167 21.0639C61.6951 20.4839 62.0763 20.0398 62.5602 19.7315C63.0441 19.42 63.5926 19.2642 64.2058 19.2642C64.6797 19.2642 65.0626 19.3438 65.3542 19.5028C65.6459 19.6586 65.8729 19.8409 66.0353 20.0497C66.2011 20.2585 66.3287 20.4425 66.4181 20.6016H66.5275V19.3636H67.9842V27.169C67.9842 27.8253 67.8317 28.3639 67.5268 28.7848C67.2219 29.2057 66.8092 29.5173 66.2889 29.7195C65.7718 29.9216 65.1885 30.0227 64.5389 30.0227ZM64.524 25.6527C64.9515 25.6527 65.3128 25.5533 65.6078 25.3544C65.9061 25.1522 66.1315 24.8639 66.2839 24.4893C66.4397 24.1115 66.5176 23.6591 66.5176 23.1321C66.5176 22.6184 66.4413 22.166 66.2889 21.7749C66.1364 21.3838 65.9127 21.0788 65.6177 20.8601C65.3227 20.638 64.9582 20.527 64.524 20.527C64.0765 20.527 63.7037 20.643 63.4054 20.875C63.1071 21.1037 62.8817 21.4152 62.7292 21.8097C62.5801 22.2041 62.5055 22.6449 62.5055 23.1321C62.5055 23.6326 62.5817 24.0717 62.7342 24.4496C62.8867 24.8274 63.112 25.1224 63.4103 25.3345C63.7119 25.5466 64.0832 25.6527 64.524 25.6527ZM75.7001 21.228L74.3528 21.4666C74.2965 21.2943 74.207 21.1302 74.0843 20.9744C73.965 20.8187 73.8026 20.6911 73.5971 20.5916C73.3916 20.4922 73.1348 20.4425 72.8265 20.4425C72.4056 20.4425 72.0543 20.5369 71.7725 20.7259C71.4908 20.9115 71.35 21.1518 71.35 21.4467C71.35 21.7019 71.4444 21.9074 71.6333 22.0632C71.8223 22.219 72.1272 22.3466 72.5481 22.446L73.7612 22.7244C74.4638 22.8868 74.9875 23.1371 75.3322 23.4751C75.6769 23.8132 75.8493 24.2524 75.8493 24.7926C75.8493 25.25 75.7167 25.6577 75.4515 26.0156C75.1897 26.3703 74.8234 26.6487 74.3528 26.8509C73.8855 27.053 73.3436 27.1541 72.7271 27.1541C71.872 27.1541 71.1743 26.9718 70.6341 26.6072C70.0938 26.2393 69.7624 25.7173 69.6397 25.0412L71.0765 24.8224C71.166 25.197 71.35 25.4804 71.6284 25.6726C71.9068 25.8615 72.2697 25.956 72.7172 25.956C73.2044 25.956 73.5938 25.8549 73.8855 25.6527C74.1771 25.4472 74.323 25.197 74.323 24.902C74.323 24.6634 74.2335 24.4628 74.0545 24.3004C73.8788 24.138 73.6087 24.0154 73.2441 23.9325L71.9515 23.6491C71.2389 23.4867 70.7119 23.2282 70.3706 22.8736C70.0325 22.5189 69.8635 22.0698 69.8635 21.5263C69.8635 21.0755 69.9894 20.6811 70.2413 20.343C70.4932 20.005 70.8412 19.7415 71.2853 19.5526C71.7295 19.3603 72.2382 19.2642 72.8116 19.2642C73.6369 19.2642 74.2865 19.4432 74.7605 19.8011C75.2344 20.1558 75.5476 20.6314 75.7001 21.228Z" fill="#2C2C2E"/>
</svg>
