<svg width="147" height="36" viewBox="0 0 147 36" fill="none" xmlns="http://www.w3.org/2000/svg">
<rect width="147" height="36" rx="6" fill="#224DFF"/>
<path d="M25.375 22.1667H26.625V18.625H30.1667V17.375H26.625V13.8333H25.375V17.375H21.8333V18.625H25.375V22.1667ZM19.75 25.5C19.4167 25.5 19.125 25.375 18.875 25.125C18.625 24.875 18.5 24.5833 18.5 24.25V11.75C18.5 11.4167 18.625 11.125 18.875 10.875C19.125 10.625 19.4167 10.5 19.75 10.5H32.25C32.5833 10.5 32.875 10.625 33.125 10.875C33.375 11.125 33.5 11.4167 33.5 11.75V24.25C33.5 24.5833 33.375 24.875 33.125 25.125C32.875 25.375 32.5833 25.5 32.25 25.5H19.75ZM19.75 24.25H32.25V11.75H19.75V24.25ZM19.75 11.75V24.25V11.75Z" fill="white"/>
<path d="M41.1186 12.8182H42.983L46.2244 20.733H46.3438L49.5852 12.8182H51.4496V23H49.9879V15.6321H49.8935L46.8906 22.9851H45.6776L42.6747 15.6271H42.5803V23H41.1186V12.8182ZM55.786 23.169C55.3021 23.169 54.8646 23.0795 54.4735 22.9006C54.0824 22.7183 53.7725 22.4548 53.5439 22.1101C53.3185 21.7654 53.2058 21.3428 53.2058 20.8423C53.2058 20.4115 53.2886 20.0568 53.4544 19.7784C53.6201 19.5 53.8438 19.2796 54.1255 19.1172C54.4073 18.9548 54.7221 18.8321 55.0701 18.7493C55.4181 18.6664 55.7728 18.6035 56.1341 18.5604C56.5914 18.5073 56.9627 18.4643 57.2477 18.4311C57.5327 18.3946 57.7399 18.3366 57.8691 18.2571C57.9984 18.1776 58.063 18.0483 58.063 17.8693V17.8345C58.063 17.4003 57.9404 17.0639 57.6951 16.8253C57.4532 16.5866 57.0919 16.4673 56.6113 16.4673C56.1109 16.4673 55.7164 16.5784 55.4281 16.8004C55.1431 17.0192 54.9458 17.2628 54.8365 17.5312L53.4395 17.2131C53.6052 16.7491 53.8471 16.3745 54.1653 16.0895C54.4868 15.8011 54.8564 15.5923 55.274 15.4631C55.6916 15.3305 56.1307 15.2642 56.5914 15.2642C56.8964 15.2642 57.2195 15.3007 57.5609 15.3736C57.9056 15.4432 58.2271 15.5724 58.5254 15.7614C58.827 15.9503 59.0739 16.2204 59.2662 16.5717C59.4584 16.9197 59.5545 17.3722 59.5545 17.929V23H58.1028V21.956H58.0431C57.947 22.1482 57.8029 22.3371 57.6106 22.5227C57.4184 22.7083 57.1715 22.8625 56.8699 22.9851C56.5682 23.1077 56.207 23.169 55.786 23.169ZM56.1092 21.9759C56.5202 21.9759 56.8715 21.8946 57.1632 21.7322C57.4582 21.5698 57.6819 21.3577 57.8343 21.0959C57.9901 20.8307 58.068 20.5473 58.068 20.2457V19.2614C58.015 19.3144 57.9122 19.3641 57.7598 19.4105C57.6106 19.4536 57.4399 19.4917 57.2477 19.5249C57.0555 19.5547 56.8682 19.5829 56.6859 19.6094C56.5036 19.6326 56.3511 19.6525 56.2285 19.669C55.9402 19.7055 55.6767 19.7668 55.438 19.853C55.2027 19.9392 55.0138 20.0634 54.8713 20.2259C54.7321 20.3849 54.6625 20.5971 54.6625 20.8622C54.6625 21.2301 54.7984 21.5085 55.0701 21.6974C55.3419 21.883 55.6883 21.9759 56.1092 21.9759ZM63.021 18.4659V23H61.5344V15.3636H62.9613V16.6065H63.0558C63.2314 16.2022 63.5065 15.8774 63.881 15.6321C64.2589 15.3868 64.7345 15.2642 65.3079 15.2642C65.8282 15.2642 66.284 15.3736 66.6751 15.5923C67.0662 15.8078 67.3694 16.1293 67.5849 16.5568C67.8003 16.9844 67.908 17.513 67.908 18.1428V23H66.4215V18.3217C66.4215 17.7682 66.2773 17.3357 65.989 17.0241C65.7006 16.7093 65.3046 16.5518 64.8008 16.5518C64.4561 16.5518 64.1495 16.6264 63.881 16.7756C63.6159 16.9247 63.4054 17.1435 63.2496 17.4318C63.0972 17.7169 63.021 18.0616 63.021 18.4659ZM74.739 19.8331V15.3636H76.2305V23H74.7688V21.6776H74.6893C74.5136 22.0852 74.2319 22.425 73.8441 22.6967C73.4596 22.9652 72.9807 23.0994 72.4073 23.0994C71.9168 23.0994 71.4826 22.9917 71.1048 22.7763C70.7302 22.5575 70.4353 22.2344 70.2198 21.8068C70.0077 21.3793 69.9016 20.8506 69.9016 20.2209V15.3636H71.3881V20.0419C71.3881 20.5623 71.5323 20.9766 71.8207 21.2848C72.109 21.593 72.4835 21.7472 72.9442 21.7472C73.2227 21.7472 73.4994 21.6776 73.7745 21.5384C74.0529 21.3991 74.2833 21.1887 74.4656 20.907C74.6512 20.6252 74.7423 20.2673 74.739 19.8331ZM80.4501 23.169C79.9662 23.169 79.5287 23.0795 79.1376 22.9006C78.7465 22.7183 78.4366 22.4548 78.2079 22.1101C77.9825 21.7654 77.8699 21.3428 77.8699 20.8423C77.8699 20.4115 77.9527 20.0568 78.1184 19.7784C78.2842 19.5 78.5079 19.2796 78.7896 19.1172C79.0713 18.9548 79.3862 18.8321 79.7342 18.7493C80.0822 18.6664 80.4368 18.6035 80.7981 18.5604C81.2555 18.5073 81.6267 18.4643 81.9118 18.4311C82.1968 18.3946 82.4039 18.3366 82.5332 18.2571C82.6625 18.1776 82.7271 18.0483 82.7271 17.8693V17.8345C82.7271 17.4003 82.6045 17.0639 82.3592 16.8253C82.1172 16.5866 81.756 16.4673 81.2754 16.4673C80.7749 16.4673 80.3805 16.5784 80.0922 16.8004C79.8071 17.0192 79.6099 17.2628 79.5005 17.5312L78.1035 17.2131C78.2692 16.7491 78.5112 16.3745 78.8294 16.0895C79.1509 15.8011 79.5204 15.5923 79.938 15.4631C80.3556 15.3305 80.7948 15.2642 81.2555 15.2642C81.5604 15.2642 81.8836 15.3007 82.225 15.3736C82.5697 15.4432 82.8912 15.5724 83.1895 15.7614C83.4911 15.9503 83.738 16.2204 83.9302 16.5717C84.1225 16.9197 84.2186 17.3722 84.2186 17.929V23H82.7669V21.956H82.7072C82.6111 22.1482 82.4669 22.3371 82.2747 22.5227C82.0824 22.7083 81.8355 22.8625 81.5339 22.9851C81.2323 23.1077 80.871 23.169 80.4501 23.169ZM80.7733 21.9759C81.1842 21.9759 81.5356 21.8946 81.8272 21.7322C82.1222 21.5698 82.3459 21.3577 82.4984 21.0959C82.6542 20.8307 82.7321 20.5473 82.7321 20.2457V19.2614C82.679 19.3144 82.5763 19.3641 82.4238 19.4105C82.2747 19.4536 82.104 19.4917 81.9118 19.5249C81.7195 19.5547 81.5323 19.5829 81.35 19.6094C81.1677 19.6326 81.0152 19.6525 80.8926 19.669C80.6042 19.7055 80.3407 19.7668 80.1021 19.853C79.8668 19.9392 79.6779 20.0634 79.5353 20.2259C79.3961 20.3849 79.3265 20.5971 79.3265 20.8622C79.3265 21.2301 79.4624 21.5085 79.7342 21.6974C80.006 21.883 80.3523 21.9759 80.7733 21.9759ZM87.685 12.8182V23H86.1985V12.8182H87.685ZM102.354 17.9091C102.354 18.9962 102.155 19.9309 101.757 20.7131C101.359 21.492 100.814 22.0919 100.121 22.5128C99.4321 22.9304 98.6482 23.1392 97.7699 23.1392C96.8883 23.1392 96.1011 22.9304 95.4084 22.5128C94.719 22.0919 94.1754 21.4903 93.7777 20.7081C93.38 19.9259 93.1811 18.9929 93.1811 17.9091C93.1811 16.822 93.38 15.889 93.7777 15.1101C94.1754 14.3279 94.719 13.728 95.4084 13.3104C96.1011 12.8894 96.8883 12.679 97.7699 12.679C98.6482 12.679 99.4321 12.8894 100.121 13.3104C100.814 13.728 101.359 14.3279 101.757 15.1101C102.155 15.889 102.354 16.822 102.354 17.9091ZM100.832 17.9091C100.832 17.0805 100.698 16.3828 100.43 15.8161C100.165 15.246 99.8 14.8151 99.3359 14.5234C98.8752 14.2285 98.3532 14.081 97.7699 14.081C97.1832 14.081 96.6596 14.2285 96.1989 14.5234C95.7382 14.8151 95.3736 15.246 95.1051 15.8161C94.84 16.3828 94.7074 17.0805 94.7074 17.9091C94.7074 18.7377 94.84 19.437 95.1051 20.0071C95.3736 20.5739 95.7382 21.0047 96.1989 21.2997C96.6596 21.5914 97.1832 21.7372 97.7699 21.7372C98.3532 21.7372 98.8752 21.5914 99.3359 21.2997C99.8 21.0047 100.165 20.5739 100.43 20.0071C100.698 19.437 100.832 18.7377 100.832 17.9091ZM104.15 23V15.3636H105.586V16.5767H105.666C105.805 16.1657 106.05 15.8426 106.402 15.6072C106.756 15.3686 107.157 15.2493 107.605 15.2493C107.698 15.2493 107.807 15.2526 107.933 15.2592C108.062 15.2659 108.163 15.2741 108.236 15.2841V16.706C108.177 16.6894 108.071 16.6712 107.918 16.6513C107.766 16.6281 107.613 16.6165 107.461 16.6165C107.109 16.6165 106.796 16.6911 106.521 16.8402C106.249 16.986 106.034 17.1899 105.875 17.4517C105.716 17.7102 105.636 18.0052 105.636 18.3366V23H104.15ZM112.108 23.1491C111.491 23.1491 110.941 22.9917 110.457 22.6768C109.977 22.3587 109.599 21.9062 109.324 21.3196C109.052 20.7296 108.916 20.022 108.916 19.1967C108.916 18.3714 109.054 17.6655 109.329 17.0788C109.607 16.4922 109.988 16.0431 110.472 15.7315C110.956 15.42 111.505 15.2642 112.118 15.2642C112.592 15.2642 112.973 15.3438 113.261 15.5028C113.553 15.6586 113.778 15.8409 113.938 16.0497C114.1 16.2585 114.226 16.4425 114.315 16.6016H114.405V12.8182H115.891V23H114.44V21.8118H114.315C114.226 21.9742 114.097 22.1598 113.928 22.3686C113.762 22.5774 113.533 22.7597 113.241 22.9155C112.95 23.0713 112.572 23.1491 112.108 23.1491ZM112.436 21.8814C112.864 21.8814 113.225 21.7687 113.52 21.5433C113.818 21.3146 114.044 20.9981 114.196 20.5938C114.352 20.1894 114.43 19.7187 114.43 19.1818C114.43 18.6515 114.353 18.1875 114.201 17.7898C114.049 17.392 113.825 17.0821 113.53 16.8601C113.235 16.638 112.87 16.527 112.436 16.527C111.989 16.527 111.616 16.643 111.317 16.875C111.019 17.107 110.794 17.4235 110.641 17.8246C110.492 18.2256 110.418 18.678 110.418 19.1818C110.418 19.6922 110.494 20.1513 110.646 20.5589C110.799 20.9666 111.024 21.2898 111.322 21.5284C111.624 21.7637 111.995 21.8814 112.436 21.8814ZM121.304 23.1541C120.552 23.1541 119.904 22.9934 119.36 22.6719C118.82 22.3471 118.402 21.8913 118.107 21.3047C117.816 20.7147 117.67 20.0237 117.67 19.2315C117.67 18.4493 117.816 17.7599 118.107 17.1634C118.402 16.5668 118.813 16.1011 119.34 15.7663C119.871 15.4316 120.49 15.2642 121.2 15.2642C121.631 15.2642 122.048 15.3355 122.453 15.478C122.857 15.6205 123.22 15.8442 123.541 16.1491C123.863 16.4541 124.116 16.8501 124.302 17.3374C124.488 17.8213 124.58 18.4096 124.58 19.1023V19.6293H118.51V18.5156H123.124C123.124 18.1245 123.044 17.7782 122.885 17.4766C122.726 17.1716 122.502 16.9313 122.214 16.7557C121.929 16.58 121.594 16.4922 121.21 16.4922C120.792 16.4922 120.427 16.5949 120.116 16.8004C119.808 17.0026 119.569 17.2678 119.4 17.5959C119.234 17.9207 119.151 18.2737 119.151 18.6548V19.5249C119.151 20.0353 119.241 20.4695 119.42 20.8274C119.602 21.1854 119.856 21.4588 120.181 21.6477C120.505 21.8333 120.885 21.9261 121.319 21.9261C121.601 21.9261 121.858 21.8864 122.09 21.8068C122.322 21.724 122.522 21.6013 122.691 21.4389C122.86 21.2765 122.99 21.076 123.079 20.8374L124.486 21.0909C124.373 21.5052 124.171 21.8681 123.879 22.1797C123.591 22.4879 123.228 22.7282 122.791 22.9006C122.356 23.0696 121.861 23.1541 121.304 23.1541ZM126.23 23V15.3636H127.667V16.5767H127.746C127.885 16.1657 128.131 15.8426 128.482 15.6072C128.837 15.3686 129.238 15.2493 129.685 15.2493C129.778 15.2493 129.887 15.2526 130.013 15.2592C130.142 15.2659 130.243 15.2741 130.316 15.2841V16.706C130.257 16.6894 130.151 16.6712 129.998 16.6513C129.846 16.6281 129.693 16.6165 129.541 16.6165C129.19 16.6165 128.876 16.6911 128.601 16.8402C128.329 16.986 128.114 17.1899 127.955 17.4517C127.796 17.7102 127.716 18.0052 127.716 18.3366V23H126.23Z" fill="white"/>
</svg>
