<svg width="36" height="36" viewBox="0 0 36 36" fill="none" xmlns="http://www.w3.org/2000/svg">
<rect x="0.5" y="0.5" width="35" height="35" rx="5.5" fill="white"/>
<path d="M18 24.6667C17.7222 24.6667 17.4861 24.5695 17.2917 24.375C17.0972 24.1806 17 23.9445 17 23.6667C17 23.3889 17.0972 23.1528 17.2917 22.9584C17.4861 22.7639 17.7222 22.6667 18 22.6667C18.2778 22.6667 18.5139 22.7639 18.7083 22.9584C18.9028 23.1528 19 23.3889 19 23.6667C19 23.9445 18.9028 24.1806 18.7083 24.375C18.5139 24.5695 18.2778 24.6667 18 24.6667ZM18 19C17.7222 19 17.4861 18.9028 17.2917 18.7084C17.0972 18.5139 17 18.2778 17 18C17 17.7223 17.0972 17.4862 17.2917 17.2917C17.4861 17.0973 17.7222 17 18 17C18.2778 17 18.5139 17.0973 18.7083 17.2917C18.9028 17.4862 19 17.7223 19 18C19 18.2778 18.9028 18.5139 18.7083 18.7084C18.5139 18.9028 18.2778 19 18 19ZM18 13.3334C17.7222 13.3334 17.4861 13.2362 17.2917 13.0417C17.0972 12.8473 17 12.6112 17 12.3334C17 12.0556 17.0972 11.8195 17.2917 11.625C17.4861 11.4306 17.7222 11.3334 18 11.3334C18.2778 11.3334 18.5139 11.4306 18.7083 11.625C18.9028 11.8195 19 12.0556 19 12.3334C19 12.6112 18.9028 12.8473 18.7083 13.0417C18.5139 13.2362 18.2778 13.3334 18 13.3334Z" fill="#696A6E"/>
<rect x="0.5" y="0.5" width="35" height="35" rx="5.5" stroke="#E5E7ED"/>
</svg>
