<svg width="44" height="44" viewBox="0 0 44 44" fill="none" xmlns="http://www.w3.org/2000/svg">
<rect x="0.5" y="0.5" width="43" height="43" rx="11.5" fill="white" stroke="#E5E7ED"/>
<path d="M22 21.975C20.9 21.975 20 21.625 19.3 20.925C18.6 20.225 18.25 19.325 18.25 18.225C18.25 17.125 18.6 16.225 19.3 15.525C20 14.825 20.9 14.475 22 14.475C23.1 14.475 24 14.825 24.7 15.525C25.4 16.225 25.75 17.125 25.75 18.225C25.75 19.325 25.4 20.225 24.7 20.925C24 21.625 23.1 21.975 22 21.975V21.975ZM14 30V27.65C14 27.0166 14.1583 26.475 14.475 26.025C14.7917 25.575 15.2 25.2333 15.7 25C16.8167 24.5 17.8875 24.125 18.9125 23.875C19.9375 23.625 20.9667 23.5 22 23.5C23.0333 23.5 24.0583 23.6291 25.075 23.8875C26.0917 24.1458 27.1583 24.5166 28.275 25C28.7917 25.2333 29.2083 25.575 29.525 26.025C29.8417 26.475 30 27.0166 30 27.65V30H14ZM15.5 28.5H28.5V27.65C28.5 27.3833 28.4208 27.1291 28.2625 26.8875C28.1042 26.6458 27.9083 26.4666 27.675 26.35C26.6083 25.8333 25.6333 25.4791 24.75 25.2875C23.8667 25.0958 22.95 25 22 25C21.05 25 20.125 25.0958 19.225 25.2875C18.325 25.4791 17.35 25.8333 16.3 26.35C16.0667 26.4666 15.875 26.6458 15.725 26.8875C15.575 27.1291 15.5 27.3833 15.5 27.65V28.5ZM22 20.475C22.65 20.475 23.1875 20.2625 23.6125 19.8375C24.0375 19.4125 24.25 18.875 24.25 18.225C24.25 17.575 24.0375 17.0375 23.6125 16.6125C23.1875 16.1875 22.65 15.975 22 15.975C21.35 15.975 20.8125 16.1875 20.3875 16.6125C19.9625 17.0375 19.75 17.575 19.75 18.225C19.75 18.875 19.9625 19.4125 20.3875 19.8375C20.8125 20.2625 21.35 20.475 22 20.475Z" fill="#95AAFF"/>
</svg>
