<svg width="45" height="44" viewBox="0 0 45 44" fill="none" xmlns="http://www.w3.org/2000/svg">
<rect x="0.833252" y="0.5" width="43" height="43" rx="11.5" fill="white" stroke="#E5E7ED"/>
<path d="M13.3333 30.45V18.15C13.0999 18.1167 12.8749 17.95 12.6583 17.65C12.4416 17.35 12.3333 17.025 12.3333 16.675V13.5C12.3333 13.1167 12.4833 12.7708 12.7833 12.4625C13.0833 12.1542 13.4333 12 13.8333 12H30.8333C31.2166 12 31.5624 12.1542 31.8708 12.4625C32.1791 12.7708 32.3333 13.1167 32.3333 13.5V16.675C32.3333 17.025 32.2249 17.35 32.0083 17.65C31.7916 17.95 31.5666 18.1167 31.3333 18.15V30.45C31.3333 30.8333 31.1791 31.1875 30.8708 31.5125C30.5624 31.8375 30.2166 32 29.8333 32H14.8333C14.4333 32 14.0833 31.8375 13.7833 31.5125C13.4833 31.1875 13.3333 30.8333 13.3333 30.45ZM14.8333 18.175V30.5H29.8333V18.175H14.8333ZM30.8333 16.675V13.5H13.8333V16.675H30.8333ZM19.3333 23.425H25.3333V21.925H19.3333V23.425ZM14.8333 30.5V18.175V30.5Z" fill="#95AAFF"/>
</svg>
