<svg width="44" height="44" viewBox="0 0 44 44" fill="none" xmlns="http://www.w3.org/2000/svg">
<rect x="0.5" y="0.5" width="43" height="43" rx="11.5" fill="white" stroke="#E5E7ED"/>
<path d="M29.875 31C27.8417 31 25.8208 30.5 23.8125 29.5C21.8042 28.5 20 27.2 18.4 25.6C16.8 24 15.5 22.1958 14.5 20.1875C13.5 18.1792 13 16.1583 13 14.125C13 13.8083 13.1083 13.5417 13.325 13.325C13.5417 13.1083 13.8083 13 14.125 13H17.625C17.8583 13 18.0625 13.0792 18.2375 13.2375C18.4125 13.3958 18.525 13.6083 18.575 13.875L19.25 17.025C19.2833 17.2583 19.2792 17.4708 19.2375 17.6625C19.1958 17.8542 19.1083 18.0167 18.975 18.15L16.475 20.675C17.4083 22.225 18.4542 23.575 19.6125 24.725C20.7708 25.875 22.0833 26.85 23.55 27.65L25.925 25.2C26.0917 25.0167 26.2833 24.8875 26.5 24.8125C26.7167 24.7375 26.9333 24.725 27.15 24.775L30.125 25.425C30.375 25.475 30.5833 25.6 30.75 25.8C30.9167 26 31 26.2333 31 26.5V29.875C31 30.1917 30.8917 30.4583 30.675 30.675C30.4583 30.8917 30.1917 31 29.875 31ZM15.725 19.3L17.75 17.25L17.175 14.5H14.5C14.5 15.15 14.6 15.8625 14.8 16.6375C15 17.4125 15.3083 18.3 15.725 19.3ZM24.95 28.375C25.6333 28.6917 26.375 28.95 27.175 29.15C27.975 29.35 28.75 29.4667 29.5 29.5V26.825L26.925 26.3L24.95 28.375Z" fill="#95AAFF"/>
</svg>
