<svg width="164" height="36" viewBox="0 0 164 36" fill="none" xmlns="http://www.w3.org/2000/svg">
<rect x="0.5" y="0.5" width="163" height="35" rx="5.5" fill="white"/>
<path d="M17.1186 23V12.8182H20.7479C21.54 12.8182 22.1963 12.9624 22.7166 13.2507C23.237 13.5391 23.6264 13.9335 23.8849 14.4339C24.1435 14.9311 24.2727 15.4912 24.2727 16.1143C24.2727 16.7408 24.1418 17.3042 23.88 17.8047C23.6214 18.3018 23.2304 18.6963 22.7067 18.9879C22.1863 19.2763 21.5317 19.4205 20.7429 19.4205H18.2472V18.1179H20.6037C21.1042 18.1179 21.5102 18.0317 21.8217 17.8594C22.1333 17.6837 22.362 17.4451 22.5078 17.1435C22.6536 16.8419 22.7266 16.4988 22.7266 16.1143C22.7266 15.7299 22.6536 15.3885 22.5078 15.0902C22.362 14.7919 22.1316 14.5582 21.8168 14.3892C21.5052 14.2202 21.0942 14.1357 20.5838 14.1357H18.6548V23H17.1186ZM25.9544 23V15.3636H27.3912V16.5767H27.4707C27.6099 16.1657 27.8552 15.8426 28.2065 15.6072C28.5611 15.3686 28.9622 15.2493 29.4096 15.2493C29.5024 15.2493 29.6118 15.2526 29.7377 15.2592C29.867 15.2659 29.9681 15.2741 30.041 15.2841V16.706C29.9814 16.6894 29.8753 16.6712 29.7228 16.6513C29.5704 16.6281 29.4179 16.6165 29.2654 16.6165C28.9141 16.6165 28.6009 16.6911 28.3258 16.8402C28.054 16.986 27.8386 17.1899 27.6795 17.4517C27.5204 17.7102 27.4409 18.0052 27.4409 18.3366V23H25.9544ZM34.3452 23.1541C33.5928 23.1541 32.9448 22.9934 32.4013 22.6719C31.861 22.3471 31.4434 21.8913 31.1484 21.3047C30.8568 20.7147 30.7109 20.0237 30.7109 19.2315C30.7109 18.4493 30.8568 17.7599 31.1484 17.1634C31.4434 16.5668 31.8544 16.1011 32.3814 15.7663C32.9117 15.4316 33.5315 15.2642 34.2408 15.2642C34.6716 15.2642 35.0893 15.3355 35.4936 15.478C35.898 15.6205 36.2609 15.8442 36.5824 16.1491C36.9039 16.4541 37.1574 16.8501 37.343 17.3374C37.5286 17.8213 37.6214 18.4096 37.6214 19.1023V19.6293H31.5511V18.5156H36.1648C36.1648 18.1245 36.0852 17.7782 35.9261 17.4766C35.767 17.1716 35.5433 16.9313 35.255 16.7557C34.9699 16.58 34.6352 16.4922 34.2507 16.4922C33.8331 16.4922 33.4685 16.5949 33.157 16.8004C32.8487 17.0026 32.6101 17.2678 32.4411 17.5959C32.2753 17.9207 32.1925 18.2737 32.1925 18.6548V19.5249C32.1925 20.0353 32.282 20.4695 32.4609 20.8274C32.6432 21.1854 32.8968 21.4588 33.2216 21.6477C33.5464 21.8333 33.9259 21.9261 34.3601 21.9261C34.6418 21.9261 34.8987 21.8864 35.1307 21.8068C35.3627 21.724 35.5632 21.6013 35.7322 21.4389C35.9013 21.2765 36.0305 21.076 36.12 20.8374L37.527 21.0909C37.4143 21.5052 37.2121 21.8681 36.9205 22.1797C36.6321 22.4879 36.2692 22.7282 35.8317 22.9006C35.3975 23.0696 34.902 23.1541 34.3452 23.1541ZM43.7701 18.0533V19.3409H39.2559V18.0533H43.7701ZM46.7306 23H45.1L48.764 12.8182H50.5389L54.2029 23H52.5723L49.6937 14.6676H49.6142L46.7306 23ZM47.0041 19.0128H52.2939V20.3054H47.0041V19.0128ZM58.2896 23.1491C57.6731 23.1491 57.1229 22.9917 56.639 22.6768C56.1584 22.3587 55.7806 21.9062 55.5055 21.3196C55.2337 20.7296 55.0978 20.022 55.0978 19.1967C55.0978 18.3714 55.2354 17.6655 55.5105 17.0788C55.7889 16.4922 56.17 16.0431 56.6539 15.7315C57.1378 15.42 57.6864 15.2642 58.2995 15.2642C58.7735 15.2642 59.1547 15.3438 59.443 15.5028C59.7347 15.6586 59.96 15.8409 60.1191 16.0497C60.2815 16.2585 60.4075 16.4425 60.497 16.6016H60.5865V12.8182H62.073V23H60.6213V21.8118H60.497C60.4075 21.9742 60.2782 22.1598 60.1092 22.3686C59.9435 22.5774 59.7148 22.7597 59.4231 22.9155C59.1315 23.0713 58.7536 23.1491 58.2896 23.1491ZM58.6177 21.8814C59.0453 21.8814 59.4065 21.7687 59.7015 21.5433C59.9998 21.3146 60.2252 20.9981 60.3777 20.5938C60.5334 20.1894 60.6113 19.7187 60.6113 19.1818C60.6113 18.6515 60.5351 18.1875 60.3826 17.7898C60.2302 17.392 60.0065 17.0821 59.7115 16.8601C59.4165 16.638 59.0519 16.527 58.6177 16.527C58.1703 16.527 57.7974 16.643 57.4991 16.875C57.2008 17.107 56.9754 17.4235 56.823 17.8246C56.6738 18.2256 56.5993 18.678 56.5993 19.1818C56.5993 19.6922 56.6755 20.1513 56.8279 20.5589C56.9804 20.9666 57.2058 21.2898 57.5041 21.5284C57.8057 21.7637 58.1769 21.8814 58.6177 21.8814ZM70.7273 15.3636L67.9581 23H66.3672L63.593 15.3636H65.1889L67.1229 21.2401H67.2024L69.1314 15.3636H70.7273ZM75.1557 23.1541C74.4033 23.1541 73.7554 22.9934 73.2118 22.6719C72.6716 22.3471 72.254 21.8913 71.959 21.3047C71.6673 20.7147 71.5215 20.0237 71.5215 19.2315C71.5215 18.4493 71.6673 17.7599 71.959 17.1634C72.254 16.5668 72.665 16.1011 73.1919 15.7663C73.7222 15.4316 74.342 15.2642 75.0513 15.2642C75.4822 15.2642 75.8998 15.3355 76.3042 15.478C76.7085 15.6205 77.0714 15.8442 77.3929 16.1491C77.7144 16.4541 77.968 16.8501 78.1536 17.3374C78.3392 17.8213 78.432 18.4096 78.432 19.1023V19.6293H72.3617V18.5156H76.9753C76.9753 18.1245 76.8958 17.7782 76.7367 17.4766C76.5776 17.1716 76.3539 16.9313 76.0655 16.7557C75.7805 16.58 75.4457 16.4922 75.0613 16.4922C74.6436 16.4922 74.2791 16.5949 73.9675 16.8004C73.6593 17.0026 73.4206 17.2678 73.2516 17.5959C73.0859 17.9207 73.003 18.2737 73.003 18.6548V19.5249C73.003 20.0353 73.0925 20.4695 73.2715 20.8274C73.4538 21.1854 73.7073 21.4588 74.0321 21.6477C74.3569 21.8333 74.7364 21.9261 75.1706 21.9261C75.4524 21.9261 75.7092 21.8864 75.9412 21.8068C76.1732 21.724 76.3738 21.6013 76.5428 21.4389C76.7118 21.2765 76.8411 21.076 76.9306 20.8374L78.3375 21.0909C78.2248 21.5052 78.0227 21.8681 77.731 22.1797C77.4426 22.4879 77.0797 22.7282 76.6422 22.9006C76.208 23.0696 75.7125 23.1541 75.1557 23.1541ZM80.0813 23V15.3636H81.5181V16.5767H81.5977C81.7369 16.1657 81.9821 15.8426 82.3335 15.6072C82.6881 15.3686 83.0891 15.2493 83.5366 15.2493C83.6294 15.2493 83.7388 15.2526 83.8647 15.2592C83.994 15.2659 84.0951 15.2741 84.168 15.2841V16.706C84.1083 16.6894 84.0022 16.6712 83.8498 16.6513C83.6973 16.6281 83.5449 16.6165 83.3924 16.6165C83.0411 16.6165 82.7279 16.6911 82.4528 16.8402C82.181 16.986 81.9656 17.1899 81.8065 17.4517C81.6474 17.7102 81.5678 18.0052 81.5678 18.3366V23H80.0813ZM91.1767 17.228L89.8294 17.4666C89.773 17.2943 89.6835 17.1302 89.5609 16.9744C89.4416 16.8187 89.2792 16.6911 89.0737 16.5916C88.8682 16.4922 88.6113 16.4425 88.3031 16.4425C87.8822 16.4425 87.5308 16.5369 87.2491 16.7259C86.9674 16.9115 86.8265 17.1518 86.8265 17.4467C86.8265 17.7019 86.921 17.9074 87.1099 18.0632C87.2988 18.219 87.6038 18.3466 88.0247 18.446L89.2377 18.7244C89.9404 18.8868 90.4641 19.1371 90.8088 19.4751C91.1535 19.8132 91.3258 20.2524 91.3258 20.7926C91.3258 21.25 91.1932 21.6577 90.9281 22.0156C90.6663 22.3703 90.3 22.6487 89.8294 22.8509C89.362 23.053 88.8201 23.1541 88.2037 23.1541C87.3485 23.1541 86.6509 22.9718 86.1106 22.6072C85.5704 22.2393 85.2389 21.7173 85.1163 21.0412L86.5531 20.8224C86.6426 21.197 86.8265 21.4804 87.1049 21.6726C87.3833 21.8615 87.7463 21.956 88.1937 21.956C88.6809 21.956 89.0704 21.8549 89.362 21.6527C89.6537 21.4472 89.7995 21.197 89.7995 20.902C89.7995 20.6634 89.71 20.4628 89.5311 20.3004C89.3554 20.138 89.0853 20.0154 88.7207 19.9325L87.4281 19.6491C86.7155 19.4867 86.1885 19.2282 85.8471 18.8736C85.5091 18.5189 85.34 18.0698 85.34 17.5263C85.34 17.0755 85.466 16.6811 85.7179 16.343C85.9698 16.005 86.3178 15.7415 86.7619 15.5526C87.206 15.3603 87.7148 15.2642 88.2882 15.2642C89.1135 15.2642 89.7631 15.4432 90.237 15.8011C90.711 16.1558 91.0242 16.6314 91.1767 17.228ZM96.2514 23.1541C95.4991 23.1541 94.8511 22.9934 94.3075 22.6719C93.7673 22.3471 93.3497 21.8913 93.0547 21.3047C92.763 20.7147 92.6172 20.0237 92.6172 19.2315C92.6172 18.4493 92.763 17.7599 93.0547 17.1634C93.3497 16.5668 93.7607 16.1011 94.2876 15.7663C94.8179 15.4316 95.4377 15.2642 96.147 15.2642C96.5779 15.2642 96.9955 15.3355 97.3999 15.478C97.8042 15.6205 98.1671 15.8442 98.4886 16.1491C98.8101 16.4541 99.0637 16.8501 99.2493 17.3374C99.4349 17.8213 99.5277 18.4096 99.5277 19.1023V19.6293H93.4574V18.5156H98.071C98.071 18.1245 97.9915 17.7782 97.8324 17.4766C97.6733 17.1716 97.4496 16.9313 97.1612 16.7557C96.8762 16.58 96.5414 16.4922 96.157 16.4922C95.7393 16.4922 95.3748 16.5949 95.0632 16.8004C94.755 17.0026 94.5163 17.2678 94.3473 17.5959C94.1816 17.9207 94.0987 18.2737 94.0987 18.6548V19.5249C94.0987 20.0353 94.1882 20.4695 94.3672 20.8274C94.5495 21.1854 94.803 21.4588 95.1278 21.6477C95.4527 21.8333 95.8321 21.9261 96.2663 21.9261C96.5481 21.9261 96.8049 21.8864 97.0369 21.8068C97.2689 21.724 97.4695 21.6013 97.6385 21.4389C97.8075 21.2765 97.9368 21.076 98.0263 20.8374L99.4332 21.0909C99.3205 21.5052 99.1184 21.8681 98.8267 22.1797C98.5384 22.4879 98.1754 22.7282 97.7379 22.9006C97.3037 23.0696 96.8082 23.1541 96.2514 23.1541ZM105.862 23H104.231L107.895 12.8182H109.67L113.334 23H111.703L108.825 14.6676H108.745L105.862 23ZM106.135 19.0128H111.425V20.3054H106.135V19.0128ZM117.778 23.1541C117.039 23.1541 116.403 22.9867 115.869 22.652C115.339 22.3139 114.931 21.8482 114.646 21.255C114.361 20.6617 114.219 19.9822 114.219 19.2166C114.219 18.4411 114.365 17.7566 114.656 17.1634C114.948 16.5668 115.359 16.1011 115.889 15.7663C116.42 15.4316 117.044 15.2642 117.763 15.2642C118.344 15.2642 118.861 15.3719 119.315 15.5874C119.769 15.7995 120.135 16.0978 120.413 16.4822C120.695 16.8667 120.862 17.3158 120.915 17.8295H119.469C119.389 17.4716 119.207 17.1634 118.922 16.9048C118.64 16.6463 118.262 16.517 117.788 16.517C117.374 16.517 117.011 16.6264 116.7 16.8452C116.391 17.0606 116.151 17.3688 115.979 17.7699C115.806 18.1676 115.72 18.6383 115.72 19.1818C115.72 19.7386 115.805 20.2192 115.974 20.6236C116.143 21.0279 116.381 21.3411 116.69 21.5632C117.001 21.7853 117.367 21.8963 117.788 21.8963C118.07 21.8963 118.325 21.8449 118.554 21.7422C118.786 21.6361 118.98 21.4853 119.136 21.2898C119.295 21.0942 119.406 20.8589 119.469 20.5838H120.915C120.862 21.0777 120.702 21.5185 120.433 21.9062C120.165 22.294 119.805 22.599 119.354 22.821C118.907 23.0431 118.382 23.1541 117.778 23.1541ZM126.07 15.3636V16.5568H121.899V15.3636H126.07ZM123.017 13.5341H124.504V20.7578C124.504 21.0462 124.547 21.2633 124.633 21.4091C124.719 21.5516 124.83 21.6494 124.966 21.7024C125.105 21.7521 125.256 21.777 125.419 21.777C125.538 21.777 125.642 21.7687 125.732 21.7521C125.821 21.7356 125.891 21.7223 125.941 21.7124L126.209 22.9403C126.123 22.9735 126 23.0066 125.841 23.0398C125.682 23.0762 125.483 23.0961 125.244 23.0994C124.853 23.1061 124.489 23.0365 124.151 22.8906C123.813 22.7448 123.539 22.5194 123.33 22.2145C123.122 21.9096 123.017 21.5268 123.017 21.0661V13.5341ZM127.714 23V15.3636H129.201V23H127.714ZM128.465 14.1854C128.206 14.1854 127.984 14.0992 127.799 13.9268C127.616 13.7512 127.525 13.5424 127.525 13.3004C127.525 13.0552 127.616 12.8464 127.799 12.674C127.984 12.4983 128.206 12.4105 128.465 12.4105C128.723 12.4105 128.944 12.4983 129.126 12.674C129.312 12.8464 129.404 13.0552 129.404 13.3004C129.404 13.5424 129.312 13.7512 129.126 13.9268C128.944 14.0992 128.723 14.1854 128.465 14.1854ZM134.417 23.1541C133.701 23.1541 133.076 22.9901 132.543 22.6619C132.009 22.3338 131.595 21.8748 131.3 21.2848C131.005 20.6948 130.857 20.0054 130.857 19.2166C130.857 18.4245 131.005 17.7318 131.3 17.1385C131.595 16.5452 132.009 16.0845 132.543 15.7564C133.076 15.4283 133.701 15.2642 134.417 15.2642C135.133 15.2642 135.758 15.4283 136.291 15.7564C136.825 16.0845 137.239 16.5452 137.534 17.1385C137.829 17.7318 137.977 18.4245 137.977 19.2166C137.977 20.0054 137.829 20.6948 137.534 21.2848C137.239 21.8748 136.825 22.3338 136.291 22.6619C135.758 22.9901 135.133 23.1541 134.417 23.1541ZM134.422 21.9062C134.886 21.9062 135.271 21.7836 135.575 21.5384C135.88 21.2931 136.106 20.9666 136.252 20.5589C136.401 20.1513 136.475 19.7022 136.475 19.2116C136.475 18.7244 136.401 18.277 136.252 17.8693C136.106 17.4583 135.88 17.1286 135.575 16.88C135.271 16.6314 134.886 16.5071 134.422 16.5071C133.955 16.5071 133.567 16.6314 133.259 16.88C132.954 17.1286 132.727 17.4583 132.578 17.8693C132.432 18.277 132.359 18.7244 132.359 19.2116C132.359 19.7022 132.432 20.1513 132.578 20.5589C132.727 20.9666 132.954 21.2931 133.259 21.5384C133.567 21.7836 133.955 21.9062 134.422 21.9062ZM141.123 18.4659V23H139.636V15.3636H141.063V16.6065H141.157C141.333 16.2022 141.608 15.8774 141.983 15.6321C142.36 15.3868 142.836 15.2642 143.409 15.2642C143.93 15.2642 144.386 15.3736 144.777 15.5923C145.168 15.8078 145.471 16.1293 145.686 16.5568C145.902 16.9844 146.01 17.513 146.01 18.1428V23H144.523V18.3217C144.523 17.7682 144.379 17.3357 144.091 17.0241C143.802 16.7093 143.406 16.5518 142.902 16.5518C142.558 16.5518 142.251 16.6264 141.983 16.7756C141.717 16.9247 141.507 17.1435 141.351 17.4318C141.199 17.7169 141.123 18.0616 141.123 18.4659Z" fill="#696A6E"/>
<rect x="0.5" y="0.5" width="163" height="35" rx="5.5" stroke="#E5E7ED"/>
</svg>
