<svg width="206" height="44" viewBox="0 0 206 44" fill="none" xmlns="http://www.w3.org/2000/svg">
<rect width="206" height="44" rx="8" fill="white"/>
<path d="M19 21.75V20.25H28.75V21.75H19Z" fill="#224DFF"/>
<path fill-rule="evenodd" clip-rule="evenodd" d="M16.5 31C16.0833 31 15.7292 30.8542 15.4375 30.5625C15.1458 30.2708 15 29.9167 15 29.5V14.5C15 14.0833 15.1458 13.7292 15.4375 13.4375C15.7292 13.1458 16.0833 13 16.5 13H31.5C31.9167 13 32.2708 13.1458 32.5625 13.4375C32.8542 13.7292 33 14.0833 33 14.5V29.5C33 29.9167 32.8542 30.2708 32.5625 30.5625C32.2708 30.8542 31.9167 31 31.5 31H16.5ZM16.5 29.5H31.5V16.5H16.5V29.5Z" fill="#3E414D"/>
<path d="M19 25.75V24.25H24.75V25.75H19Z" fill="#224DFF"/>
<path d="M50.6719 19.4929C50.6188 19.0223 50.4001 18.6577 50.0156 18.3991C49.6312 18.1373 49.1473 18.0064 48.5639 18.0064C48.1463 18.0064 47.785 18.0727 47.4801 18.2053C47.1752 18.3345 46.9382 18.5135 46.7692 18.7422C46.6035 18.9676 46.5206 19.2244 46.5206 19.5128C46.5206 19.7547 46.5769 19.9635 46.6896 20.1392C46.8056 20.3149 46.9564 20.4624 47.142 20.5817C47.331 20.6977 47.5331 20.7955 47.7486 20.875C47.964 20.9512 48.1712 21.0142 48.37 21.0639L49.3643 21.3224C49.6892 21.402 50.0223 21.5097 50.3636 21.6456C50.705 21.7815 51.0215 21.9605 51.3132 22.1825C51.6049 22.4046 51.8402 22.6797 52.0192 23.0078C52.2015 23.3359 52.2926 23.7287 52.2926 24.1861C52.2926 24.7628 52.1435 25.2749 51.8452 25.7223C51.5502 26.1697 51.121 26.5227 50.5575 26.7812C49.9974 27.0398 49.3196 27.169 48.5241 27.169C47.7618 27.169 47.1023 27.0481 46.5455 26.8061C45.9886 26.5642 45.5528 26.2211 45.2379 25.777C44.9231 25.3295 44.7491 24.7992 44.7159 24.1861H46.2571C46.2869 24.554 46.4063 24.8606 46.6151 25.1058C46.8272 25.3478 47.0973 25.5284 47.4254 25.6477C47.7569 25.7637 48.1198 25.8217 48.5142 25.8217C48.9484 25.8217 49.3345 25.7538 49.6726 25.6179C50.014 25.4787 50.2824 25.2865 50.478 25.0412C50.6735 24.7926 50.7713 24.5026 50.7713 24.1712C50.7713 23.8696 50.6851 23.6226 50.5128 23.4304C50.3438 23.2382 50.1134 23.0791 49.8217 22.9531C49.5334 22.8272 49.2069 22.7161 48.8423 22.62L47.6392 22.2919C46.8239 22.0698 46.1776 21.7434 45.7003 21.3125C45.2263 20.8816 44.9893 20.3116 44.9893 19.6023C44.9893 19.0156 45.1484 18.5036 45.4666 18.0661C45.7848 17.6286 46.2157 17.2888 46.7592 17.0469C47.3028 16.8016 47.916 16.679 48.5987 16.679C49.2881 16.679 49.8963 16.8 50.4233 17.0419C50.9536 17.2839 51.3712 17.617 51.6761 18.0412C51.9811 18.4621 52.1402 18.946 52.1534 19.4929H50.6719ZM57.2257 27.1541C56.4866 27.1541 55.8502 26.9867 55.3166 26.652C54.7863 26.3139 54.3786 25.8482 54.0936 25.255C53.8085 24.6617 53.666 23.9822 53.666 23.2166C53.666 22.4411 53.8118 21.7566 54.1035 21.1634C54.3952 20.5668 54.8062 20.1011 55.3365 19.7663C55.8668 19.4316 56.4915 19.2642 57.2108 19.2642C57.7908 19.2642 58.3078 19.3719 58.7619 19.5874C59.216 19.7995 59.5822 20.0978 59.8606 20.4822C60.1423 20.8667 60.3097 21.3158 60.3627 21.8295H58.916C58.8365 21.4716 58.6542 21.1634 58.3691 20.9048C58.0874 20.6463 57.7096 20.517 57.2356 20.517C56.8213 20.517 56.4584 20.6264 56.1468 20.8452C55.8386 21.0606 55.5983 21.3688 55.426 21.7699C55.2536 22.1676 55.1674 22.6383 55.1674 23.1818C55.1674 23.7386 55.252 24.2192 55.421 24.6236C55.59 25.0279 55.8287 25.3411 56.1369 25.5632C56.4484 25.7853 56.8147 25.8963 57.2356 25.8963C57.5173 25.8963 57.7725 25.8449 58.0012 25.7422C58.2333 25.6361 58.4271 25.4853 58.5829 25.2898C58.742 25.0942 58.853 24.8589 58.916 24.5838H60.3627C60.3097 25.0777 60.149 25.5185 59.8805 25.9062C59.612 26.294 59.2524 26.599 58.8017 26.821C58.3542 27.0431 57.8289 27.1541 57.2257 27.1541ZM61.9524 27V19.3636H63.3892V20.5767H63.4688C63.608 20.1657 63.8532 19.8426 64.2045 19.6072C64.5592 19.3686 64.9602 19.2493 65.4077 19.2493C65.5005 19.2493 65.6098 19.2526 65.7358 19.2592C65.8651 19.2659 65.9661 19.2741 66.0391 19.2841V20.706C65.9794 20.6894 65.8733 20.6712 65.7209 20.6513C65.5684 20.6281 65.416 20.6165 65.2635 20.6165C64.9122 20.6165 64.599 20.6911 64.3239 20.8402C64.0521 20.986 63.8366 21.1899 63.6776 21.4517C63.5185 21.7102 63.4389 22.0052 63.4389 22.3366V27H61.9524ZM70.3432 27.1541C69.5908 27.1541 68.9429 26.9934 68.3993 26.6719C67.8591 26.3471 67.4415 25.8913 67.1465 25.3047C66.8548 24.7147 66.709 24.0237 66.709 23.2315C66.709 22.4493 66.8548 21.7599 67.1465 21.1634C67.4415 20.5668 67.8525 20.1011 68.3794 19.7663C68.9097 19.4316 69.5295 19.2642 70.2388 19.2642C70.6697 19.2642 71.0873 19.3355 71.4917 19.478C71.896 19.6205 72.2589 19.8442 72.5804 20.1491C72.9019 20.4541 73.1555 20.8501 73.3411 21.3374C73.5267 21.8213 73.6195 22.4096 73.6195 23.1023V23.6293H67.5492V22.5156H72.1628C72.1628 22.1245 72.0833 21.7782 71.9242 21.4766C71.7651 21.1716 71.5414 20.9313 71.253 20.7557C70.968 20.58 70.6332 20.4922 70.2488 20.4922C69.8311 20.4922 69.4666 20.5949 69.155 20.8004C68.8468 21.0026 68.6081 21.2678 68.4391 21.5959C68.2734 21.9207 68.1905 22.2737 68.1905 22.6548V23.5249C68.1905 24.0353 68.28 24.4695 68.459 24.8274C68.6413 25.1854 68.8948 25.4588 69.2196 25.6477C69.5444 25.8333 69.9239 25.9261 70.3581 25.9261C70.6399 25.9261 70.8967 25.8864 71.1287 25.8068C71.3607 25.724 71.5613 25.6013 71.7303 25.4389C71.8993 25.2765 72.0286 25.076 72.1181 24.8374L73.525 25.0909C73.4123 25.5052 73.2102 25.8681 72.9185 26.1797C72.6301 26.4879 72.2672 26.7282 71.8297 26.9006C71.3955 27.0696 70.9 27.1541 70.3432 27.1541ZM78.56 27.1541C77.8076 27.1541 77.1597 26.9934 76.6161 26.6719C76.0759 26.3471 75.6583 25.8913 75.3633 25.3047C75.0716 24.7147 74.9258 24.0237 74.9258 23.2315C74.9258 22.4493 75.0716 21.7599 75.3633 21.1634C75.6583 20.5668 76.0692 20.1011 76.5962 19.7663C77.1265 19.4316 77.7463 19.2642 78.4556 19.2642C78.8865 19.2642 79.3041 19.3355 79.7085 19.478C80.1128 19.6205 80.4757 19.8442 80.7972 20.1491C81.1187 20.4541 81.3723 20.8501 81.5579 21.3374C81.7435 21.8213 81.8363 22.4096 81.8363 23.1023V23.6293H75.766V22.5156H80.3796C80.3796 22.1245 80.3001 21.7782 80.141 21.4766C79.9819 21.1716 79.7582 20.9313 79.4698 20.7557C79.1848 20.58 78.85 20.4922 78.4656 20.4922C78.0479 20.4922 77.6834 20.5949 77.3718 20.8004C77.0636 21.0026 76.8249 21.2678 76.6559 21.5959C76.4902 21.9207 76.4073 22.2737 76.4073 22.6548V23.5249C76.4073 24.0353 76.4968 24.4695 76.6758 24.8274C76.8581 25.1854 77.1116 25.4588 77.4364 25.6477C77.7612 25.8333 78.1407 25.9261 78.5749 25.9261C78.8567 25.9261 79.1135 25.8864 79.3455 25.8068C79.5775 25.724 79.7781 25.6013 79.9471 25.4389C80.1161 25.2765 80.2454 25.076 80.3349 24.8374L81.7418 25.0909C81.6291 25.5052 81.427 25.8681 81.1353 26.1797C80.8469 26.4879 80.484 26.7282 80.0465 26.9006C79.6123 27.0696 79.1168 27.1541 78.56 27.1541ZM84.9721 22.4659V27H83.4856V19.3636H84.9125V20.6065H85.0069C85.1826 20.2022 85.4577 19.8774 85.8322 19.6321C86.21 19.3868 86.6857 19.2642 87.2591 19.2642C87.7794 19.2642 88.2351 19.3736 88.6262 19.5923C89.0173 19.8078 89.3206 20.1293 89.536 20.5568C89.7515 20.9844 89.8592 21.513 89.8592 22.1428V27H88.3727V22.3217C88.3727 21.7682 88.2285 21.3357 87.9402 21.0241C87.6518 20.7093 87.2557 20.5518 86.752 20.5518C86.4073 20.5518 86.1007 20.6264 85.8322 20.7756C85.5671 20.9247 85.3566 21.1435 85.2008 21.4318C85.0484 21.7169 84.9721 22.0616 84.9721 22.4659ZM91.8528 27V19.3636H93.3393V27H91.8528ZM92.6035 18.1854C92.345 18.1854 92.1229 18.0992 91.9373 17.9268C91.755 17.7512 91.6639 17.5424 91.6639 17.3004C91.6639 17.0552 91.755 16.8464 91.9373 16.674C92.1229 16.4983 92.345 16.4105 92.6035 16.4105C92.862 16.4105 93.0824 16.4983 93.2647 16.674C93.4503 16.8464 93.5431 17.0552 93.5431 17.3004C93.5431 17.5424 93.4503 17.7512 93.2647 17.9268C93.0824 18.0992 92.862 18.1854 92.6035 18.1854ZM96.8256 22.4659V27H95.3391V19.3636H96.766V20.6065H96.8604C97.0361 20.2022 97.3112 19.8774 97.6857 19.6321C98.0636 19.3868 98.5392 19.2642 99.1126 19.2642C99.6329 19.2642 100.089 19.3736 100.48 19.5923C100.871 19.8078 101.174 20.1293 101.39 20.5568C101.605 20.9844 101.713 21.513 101.713 22.1428V27H100.226V22.3217C100.226 21.7682 100.082 21.3357 99.7937 21.0241C99.5053 20.7093 99.1093 20.5518 98.6055 20.5518C98.2608 20.5518 97.9542 20.6264 97.6857 20.7756C97.4206 20.9247 97.2101 21.1435 97.0543 21.4318C96.9019 21.7169 96.8256 22.0616 96.8256 22.4659ZM106.908 30.0227C106.301 30.0227 105.779 29.9432 105.342 29.7841C104.908 29.625 104.553 29.4145 104.278 29.1527C104.003 28.8909 103.797 28.6042 103.662 28.2926L104.939 27.7656C105.029 27.9115 105.148 28.0656 105.297 28.228C105.45 28.3937 105.655 28.5346 105.914 28.6506C106.176 28.7666 106.512 28.8246 106.923 28.8246C107.486 28.8246 107.952 28.687 108.32 28.4119C108.688 28.1402 108.872 27.706 108.872 27.1094V25.608H108.777C108.688 25.7704 108.559 25.951 108.39 26.1499C108.224 26.3487 107.995 26.5211 107.703 26.6669C107.412 26.8127 107.032 26.8857 106.565 26.8857C105.962 26.8857 105.418 26.7448 104.934 26.4631C104.454 26.178 104.073 25.7588 103.791 25.2053C103.512 24.6484 103.373 23.964 103.373 23.152C103.373 22.34 103.511 21.6439 103.786 21.0639C104.064 20.4839 104.445 20.0398 104.929 19.7315C105.413 19.42 105.962 19.2642 106.575 19.2642C107.049 19.2642 107.432 19.3438 107.723 19.5028C108.015 19.6586 108.242 19.8409 108.404 20.0497C108.57 20.2585 108.698 20.4425 108.787 20.6016H108.897V19.3636H110.353V27.169C110.353 27.8253 110.201 28.3639 109.896 28.7848C109.591 29.2057 109.178 29.5173 108.658 29.7195C108.141 29.9216 107.558 30.0227 106.908 30.0227ZM106.893 25.6527C107.321 25.6527 107.682 25.5533 107.977 25.3544C108.275 25.1522 108.501 24.8639 108.653 24.4893C108.809 24.1115 108.887 23.6591 108.887 23.1321C108.887 22.6184 108.81 22.166 108.658 21.7749C108.506 21.3838 108.282 21.0788 107.987 20.8601C107.692 20.638 107.327 20.527 106.893 20.527C106.446 20.527 106.073 20.643 105.775 20.875C105.476 21.1037 105.251 21.4152 105.098 21.8097C104.949 22.2041 104.875 22.6449 104.875 23.1321C104.875 23.6326 104.951 24.0717 105.103 24.4496C105.256 24.8274 105.481 25.1224 105.779 25.3345C106.081 25.5466 106.452 25.6527 106.893 25.6527ZM118.069 21.228L116.722 21.4666C116.666 21.2943 116.576 21.1302 116.453 20.9744C116.334 20.8187 116.172 20.6911 115.966 20.5916C115.761 20.4922 115.504 20.4425 115.196 20.4425C114.775 20.4425 114.423 20.5369 114.142 20.7259C113.86 20.9115 113.719 21.1518 113.719 21.4467C113.719 21.7019 113.814 21.9074 114.002 22.0632C114.191 22.219 114.496 22.3466 114.917 22.446L116.13 22.7244C116.833 22.8868 117.357 23.1371 117.701 23.4751C118.046 23.8132 118.218 24.2524 118.218 24.7926C118.218 25.25 118.086 25.6577 117.821 26.0156C117.559 26.3703 117.193 26.6487 116.722 26.8509C116.255 27.053 115.713 27.1541 115.096 27.1541C114.241 27.1541 113.543 26.9718 113.003 26.6072C112.463 26.2393 112.132 25.7173 112.009 25.0412L113.446 24.8224C113.535 25.197 113.719 25.4804 113.998 25.6726C114.276 25.8615 114.639 25.956 115.086 25.956C115.574 25.956 115.963 25.8549 116.255 25.6527C116.546 25.4472 116.692 25.197 116.692 24.902C116.692 24.6634 116.603 24.4628 116.424 24.3004C116.248 24.138 115.978 24.0154 115.613 23.9325L114.321 23.6491C113.608 23.4867 113.081 23.2282 112.74 22.8736C112.402 22.5189 112.233 22.0698 112.233 21.5263C112.233 21.0755 112.359 20.6811 112.61 20.343C112.862 20.005 113.21 19.7415 113.654 19.5526C114.099 19.3603 114.607 19.2642 115.181 19.2642C116.006 19.2642 116.656 19.4432 117.13 19.8011C117.604 20.1558 117.917 20.6314 118.069 21.228Z" fill="#2C2C2E"/>
</svg>
