<svg width="45" height="44" viewBox="0 0 45 44" fill="none" xmlns="http://www.w3.org/2000/svg">
<rect x="0.833252" y="0.5" width="43" height="43" rx="11.5" fill="white" stroke="#E5E7ED"/>
<path d="M22.3333 32C19.9999 31.4167 18.0833 30.0625 16.5833 27.9375C15.0833 25.8125 14.3333 23.4833 14.3333 20.95V15L22.3333 12L30.3333 15V20.95C30.3333 23.4833 29.5833 25.8125 28.0833 27.9375C26.5833 30.0625 24.6666 31.4167 22.3333 32ZM22.3333 30.45C24.2499 29.8167 25.8124 28.6208 27.0208 26.8625C28.2291 25.1042 28.8333 23.1333 28.8333 20.95V16.05L22.3333 13.6L15.8333 16.05V20.95C15.8333 23.1333 16.4374 25.1042 17.6458 26.8625C18.8541 28.6208 20.4166 29.8167 22.3333 30.45Z" fill="#95AAFF"/>
</svg>
