<svg width="44" height="44" viewBox="0 0 44 44" fill="none" xmlns="http://www.w3.org/2000/svg">
<rect x="0.5" y="0.5" width="43" height="43" rx="11.5" fill="white" stroke="#E5E7ED"/>
<path d="M20.525 26.55L27.6 19.475L26.45 18.35L20.525 24.275L17.525 21.275L16.4 22.4L20.525 26.55ZM22 32C20.6333 32 19.3417 31.7375 18.125 31.2125C16.9083 30.6875 15.8458 29.9708 14.9375 29.0625C14.0292 28.1542 13.3125 27.0917 12.7875 25.875C12.2625 24.6583 12 23.3667 12 22C12 20.6167 12.2625 19.3167 12.7875 18.1C13.3125 16.8833 14.0292 15.825 14.9375 14.925C15.8458 14.025 16.9083 13.3125 18.125 12.7875C19.3417 12.2625 20.6333 12 22 12C23.3833 12 24.6833 12.2625 25.9 12.7875C27.1167 13.3125 28.175 14.025 29.075 14.925C29.975 15.825 30.6875 16.8833 31.2125 18.1C31.7375 19.3167 32 20.6167 32 22C32 23.3667 31.7375 24.6583 31.2125 25.875C30.6875 27.0917 29.975 28.1542 29.075 29.0625C28.175 29.9708 27.1167 30.6875 25.9 31.2125C24.6833 31.7375 23.3833 32 22 32ZM22 30.5C24.3667 30.5 26.375 29.6708 28.025 28.0125C29.675 26.3542 30.5 24.35 30.5 22C30.5 19.6333 29.675 17.625 28.025 15.975C26.375 14.325 24.3667 13.5 22 13.5C19.65 13.5 17.6458 14.325 15.9875 15.975C14.3292 17.625 13.5 19.6333 13.5 22C13.5 24.35 14.3292 26.3542 15.9875 28.0125C17.6458 29.6708 19.65 30.5 22 30.5Z" fill="#95AAFF"/>
</svg>
