<svg width="45" height="44" viewBox="0 0 45 44" fill="none" xmlns="http://www.w3.org/2000/svg">
<rect x="0.833252" y="0.5" width="43" height="43" rx="11.5" fill="white" stroke="#E5E7ED"/>
<path d="M26.0083 26.825L27.1333 25.7L23.1583 21.7V16.675H21.6583V22.3L26.0083 26.825ZM22.3333 32C20.9666 32 19.6749 31.7375 18.4583 31.2125C17.2416 30.6875 16.1791 29.9708 15.2708 29.0625C14.3624 28.1542 13.6458 27.0917 13.1208 25.875C12.5958 24.6583 12.3333 23.3667 12.3333 22C12.3333 20.6333 12.5958 19.3417 13.1208 18.125C13.6458 16.9083 14.3624 15.8458 15.2708 14.9375C16.1791 14.0292 17.2416 13.3125 18.4583 12.7875C19.6749 12.2625 20.9666 12 22.3333 12C23.6999 12 24.9916 12.2625 26.2083 12.7875C27.4249 13.3125 28.4874 14.0292 29.3958 14.9375C30.3041 15.8458 31.0208 16.9083 31.5458 18.125C32.0708 19.3417 32.3333 20.6333 32.3333 22C32.3333 23.3667 32.0708 24.6583 31.5458 25.875C31.0208 27.0917 30.3041 28.1542 29.3958 29.0625C28.4874 29.9708 27.4249 30.6875 26.2083 31.2125C24.9916 31.7375 23.6999 32 22.3333 32ZM22.3333 30.5C24.6666 30.5 26.6666 29.6667 28.3333 28C29.9999 26.3333 30.8333 24.3333 30.8333 22C30.8333 19.6667 29.9999 17.6667 28.3333 16C26.6666 14.3333 24.6666 13.5 22.3333 13.5C19.9999 13.5 17.9999 14.3333 16.3333 16C14.6666 17.6667 13.8333 19.6667 13.8333 22C13.8333 24.3333 14.6666 26.3333 16.3333 28C17.9999 29.6667 19.9999 30.5 22.3333 30.5Z" fill="#95AAFF"/>
</svg>
