<svg width="45" height="44" viewBox="0 0 45 44" fill="none" xmlns="http://www.w3.org/2000/svg">
<rect x="1.16663" y="0.5" width="43" height="43" rx="11.5" fill="white" stroke="#E5E7ED"/>
<path d="M22.6666 21.75C23.15 21.75 23.5625 21.5792 23.9041 21.2375C24.2458 20.8958 24.4166 20.4833 24.4166 20C24.4166 19.5167 24.2458 19.1042 23.9041 18.7625C23.5625 18.4208 23.15 18.25 22.6666 18.25C22.1833 18.25 21.7708 18.4208 21.4291 18.7625C21.0875 19.1042 20.9166 19.5167 20.9166 20C20.9166 20.4833 21.0875 20.8958 21.4291 21.2375C21.7708 21.5792 22.1833 21.75 22.6666 21.75ZM22.6666 30.025C24.8833 28.0083 26.5208 26.1792 27.5791 24.5375C28.6375 22.8958 29.1666 21.45 29.1666 20.2C29.1666 18.2333 28.5375 16.625 27.2791 15.375C26.0208 14.125 24.4833 13.5 22.6666 13.5C20.85 13.5 19.3125 14.125 18.0541 15.375C16.7958 16.625 16.1666 18.2333 16.1666 20.2C16.1666 21.45 16.7083 22.8958 17.7916 24.5375C18.875 26.1792 20.5 28.0083 22.6666 30.025ZM22.6666 32C19.9833 29.7167 17.9791 27.5958 16.6541 25.6375C15.3291 23.6792 14.6666 21.8667 14.6666 20.2C14.6666 17.7 15.4708 15.7083 17.0791 14.225C18.6875 12.7417 20.55 12 22.6666 12C24.7833 12 26.6458 12.7417 28.2541 14.225C29.8625 15.7083 30.6666 17.7 30.6666 20.2C30.6666 21.8667 30.0041 23.6792 28.6791 25.6375C27.3541 27.5958 25.35 29.7167 22.6666 32Z" fill="#95AAFF"/>
</svg>
